<svg xmlns="http://www.w3.org/2000/svg" xmlns:xlink="http://www.w3.org/1999/xlink" width="75" height="77" viewBox="0 0 75 77">
  <defs>
    <linearGradient id="linear-gradient" x1="0.5" x2="0.5" y2="1" gradientUnits="objectBoundingBox">
      <stop offset="0" stop-color="#a183fe" />
      <stop offset="1" stop-color="#6f42f3" />
    </linearGradient>
    <filter id="Rectangle_9848" x="0" y="0" width="75" height="77" filterUnits="userSpaceOnUse">
      <feOffset dy="3" input="SourceAlpha" />
      <feGaussianBlur stdDeviation="3" result="blur" />
      <feFlood flood-color="#cbdfd5" flood-opacity="0.447" />
      <feComposite operator="in" in2="blur" />
      <feComposite in="SourceGraphic" />
    </filter>
  </defs>
  <g id="Group_47497" data-name="Group 47497" transform="translate(9 6)">
    <g transform="matrix(1, 0, 0, 1, -9, -6)" filter="url(#Rectangle_9848)">
      <rect id="Rectangle_9848-2" data-name="Rectangle 9848" width="57" height="59" rx="18" transform="translate(9 6)" fill="url(#linear-gradient)" />
    </g>
    <g id="Group" transform="translate(9.963 10.197)">
      <path id="Compound_Path" data-name="Compound Path" d="M37.29,23.2a11.64,11.64,0,1,0,8.263,3.392A11.69,11.69,0,0,0,37.29,23.2Zm0,17.485a5.845,5.845,0,1,1,5.845-5.845A5.845,5.845,0,0,1,37.29,40.685Z" transform="translate(-19.005 -16.606)" fill="#fff" />
      <path id="Path" d="M15.3,80.4A1.149,1.149,0,1,0,16.9,82l4-4-1.848-1.4Z" transform="translate(-13.605 -43.328)" fill="#fff" />
      <circle id="Path-2" data-name="Path" cx="4.346" cy="4.346" r="4.346" transform="translate(13.938 13.888)" fill="#fff" />
      <path id="Compound_Path-2" data-name="Compound Path" d="M30.684,10A18.284,18.284,0,1,0,48.969,28.234,18.284,18.284,0,0,0,30.684,10Zm0,31.423A13.189,13.189,0,1,1,43.873,28.234,13.189,13.189,0,0,1,30.684,41.423Z" transform="translate(-12.4 -10)" fill="#fff" />
      <path id="Path-3" data-name="Path" d="M72.848,76.6,71,78l4,4a1.1,1.1,0,0,0,1.6,0,1.3,1.3,0,0,0,.35-.8,1.2,1.2,0,0,0-.35-.8Z" transform="translate(-41.725 -43.328)" fill="#fff" />
    </g>
  </g>
</svg>