<svg xmlns="http://www.w3.org/2000/svg" xmlns:xlink="http://www.w3.org/1999/xlink" width="75" height="76" viewBox="0 0 75 76">
  <defs>
    <linearGradient id="linear-gradient" x1="0.5" x2="0.5" y2="1" gradientUnits="objectBoundingBox">
      <stop offset="0" stop-color="#a183fe" />
      <stop offset="1" stop-color="#6f42f3" />
    </linearGradient>
    <filter id="Rectangle_9848" x="0" y="0" width="75" height="76" filterUnits="userSpaceOnUse">
      <feOffset dy="3" input="SourceAlpha" />
      <feGaussianBlur stdDeviation="3" result="blur" />
      <feFlood flood-color="#cbdfd5" flood-opacity="0.447" />
      <feComposite operator="in" in2="blur" />
      <feComposite in="SourceGraphic" />
    </filter>
  </defs>
  <g id="Group_47499" data-name="Group 47499" transform="translate(9 6)">
    <g transform="matrix(1, 0, 0, 1, -9, -6)" filter="url(#Rectangle_9848)">
      <rect id="Rectangle_9848-2" data-name="Rectangle 9848" width="57" height="58" rx="18" transform="translate(9 6)" fill="url(#linear-gradient)" />
    </g>
    <g id="Group_47493" data-name="Group 47493" transform="translate(10.1 10.479)">
      <path id="Path_40906" data-name="Path 40906" d="M3285.94-1366.659a18.55,18.55,0,0,0-18.781,18.2,18.517,18.517,0,0,0,18.466,18.841,18.535,18.535,0,0,0,18.559-18.339A18.566,18.566,0,0,0,3285.94-1366.659Zm11.364,29.281a13.527,13.527,0,0,0-23.281.021,15.213,15.213,0,0,1-3.017-4.688,15.671,15.671,0,0,1-.83-9.553A15.884,15.884,0,0,1,3284-1363.927a15.87,15.87,0,0,1,16.285,9.575A15.776,15.776,0,0,1,3297.3-1337.378Z" transform="translate(-3267.156 1366.66)" fill="#fff" />
      <path id="Path_40907" data-name="Path 40907" d="M3414.5-1269.622a6.518,6.518,0,0,0-6.539,6.45,6.491,6.491,0,0,0,6.478,6.539,6.473,6.473,0,0,0,6.507-6.417A6.5,6.5,0,0,0,3414.5-1269.622Z" transform="translate(-3396.297 1277.658)" fill="#fff" />
    </g>
  </g>
</svg>