<svg xmlns="http://www.w3.org/2000/svg" xmlns:xlink="http://www.w3.org/1999/xlink" width="76" height="76" viewBox="0 0 76 76">
  <defs>
    <linearGradient id="linear-gradient" x1="0.5" x2="0.5" y2="1" gradientUnits="objectBoundingBox">
      <stop offset="0" stop-color="#a183fe" />
      <stop offset="1" stop-color="#6f42f3" />
    </linearGradient>
    <filter id="Path_42962" x="0" y="0" width="76" height="76" filterUnits="userSpaceOnUse">
      <feOffset dy="3" input="SourceAlpha" />
      <feGaussianBlur stdDeviation="3" result="blur" />
      <feFlood flood-color="#cbdfd5" flood-opacity="0.447" />
      <feComposite operator="in" in2="blur" />
      <feComposite in="SourceGraphic" />
    </filter>
  </defs>
  <g id="Group_47498" data-name="Group 47498" transform="translate(9 6)">
    <g transform="matrix(1, 0, 0, 1, -9, -6)" filter="url(#Path_42962)">
      <path id="Path_42962-2" data-name="Path 42962" d="M18,0H40A18,18,0,0,1,58,18V40A18,18,0,0,1,40,58H18A18,18,0,0,1,0,40V18A18,18,0,0,1,18,0Z" transform="translate(9 6)" fill="url(#linear-gradient)" />
    </g>
    <g id="noun_Circle_10055" transform="translate(10.441 10.65)">
      <path id="Path_40905" data-name="Path 40905" d="M18.519,0A18.519,18.519,0,1,0,37.039,18.519,18.519,18.519,0,0,0,18.519,0Zm0,5.243A13.276,13.276,0,1,1,5.243,18.519,13.274,13.274,0,0,1,18.519,5.243Z" fill="#fff" />
    </g>
  </g>
</svg>