<svg xmlns="http://www.w3.org/2000/svg" width="218.915" height="225.813" viewBox="0 0 218.915 225.813">
  <g id="Group_47503" data-name="Group 47503" transform="translate(0 0)">
    <g id="Group_47500" data-name="Group 47500" transform="translate(0 0)">
      <path id="Path_40911" data-name="Path 40911" d="M5741.393-1088.23v-.006l.01-.015.029,0-.033.03Z" transform="translate(-5605.525 1163.976)" fill="none" />
      <path id="Path_40912" data-name="Path 40912" d="M5740.568-1090.824a1.388,1.388,0,0,0,.253-.025c-.032.091-.062.184-.1.275C5740.678-1090.662,5740.619-1090.739,5740.568-1090.824Z" transform="translate(-5604.533 1165.363)" fill="none" />
      <path id="Path_40913" data-name="Path 40913" d="M5741.454-1088.244h0l.011,0-.01.015Z" transform="translate(-5605.589 1163.97)" fill="none" />
      <path id="Path_40914" data-name="Path 40914" d="M5903.515-1140.178h0c0,.01,0,.02,0,.03-.014-.01-.027-.018-.042-.028.021-.008.042-.019.063-.028,0,.011,0,.023,0,.034Z" transform="translate(-5842.95 1191.781)" fill="none" />
      <path id="Path_40915" data-name="Path 40915" d="M5929.758-1138.612v0c-.013-.086-.028-.171-.041-.258a.678.678,0,0,0,.257.046c-.072.073-.144.138-.216.213Z" transform="translate(-5881.596 1191.067)" fill="none" />
      <path id="Path_40916" data-name="Path 40916" d="M5882.556-798.905a.624.624,0,0,0-.032.125c-.04-.04-.081-.078-.122-.12C5882.456-798.9,5882.5-798.9,5882.556-798.905Z" transform="translate(-5812.187 1009.103)" fill="none" />
      <path id="Path_40917" data-name="Path 40917" d="M6019.786-1171.373l-.042.013c.013-.031.023-.061.034-.092,0,.026.006.052.008.079Z" transform="translate(-6013.248 1208.505)" fill="none" />
      <path id="Path_40918" data-name="Path 40918" d="M5636.245-792.637a1.214,1.214,0,0,0,.141-.264c.04.064.077.128.12.192C5636.418-792.681,5636.333-792.662,5636.245-792.637Z" transform="translate(-5451.732 1005.889)" fill="none" />
      <path id="Path_40919" data-name="Path 40919" d="M5776.61-777.734l.032-.021,0,.014Z" transform="translate(-5657.104 997.783)" fill="none" />
      <path id="Path_40920" data-name="Path 40920" d="M5975.611-932.775h0c.009.076.019.152.027.228a1.67,1.67,0,0,0-.208-.1l.181-.125Z" transform="translate(-5948.505 1080.756)" fill="none" />
      <path id="Path_40921" data-name="Path 40921" d="M5636.573-819.448c.031,0,.063,0,.093-.007-.02.014-.034.031-.056.045Z" transform="translate(-5452.045 1020.102)" fill="none" />
      <path id="Path_40922" data-name="Path 40922" d="M5725.635-1069.2a.783.783,0,0,0-.073.12l-.189-.115Z" transform="translate(-5582.285 1153.774)" fill="none" />
      <path id="Path_40923" data-name="Path 40923" d="M5682.7-796.535a1.033,1.033,0,0,0-.437-.013c.092-.156.2-.332.325-.539C5682.62-796.9,5682.66-796.716,5682.7-796.535Z" transform="translate(-5519.315 1008.13)" fill="none" />
      <path id="Path_40924" data-name="Path 40924" d="M5950.328-788.042l.086-.031.046.076C5950.414-788.012,5950.372-788.029,5950.328-788.042Z" transform="translate(-5911.659 1003.306)" fill="none" />
      <path id="Path_40925" data-name="Path 40925" d="M5737.548-813.7a.9.9,0,0,0,.029-.123,1.036,1.036,0,0,0,0-.234c.16.064.318.121.481.193C5737.884-813.8,5737.717-813.751,5737.548-813.7Z" transform="translate(-5600.365 1017.212)" fill="none" />
      <path id="Path_40926" data-name="Path 40926" d="M5780.15-799.594c-.017,0-.032,0-.048,0a.169.169,0,0,1,.02-.017C5780.132-799.608,5780.141-799.6,5780.15-799.594Z" transform="translate(-5662.236 1009.482)" fill="none" />
      <path id="Path_40927" data-name="Path 40927" d="M5713.006-820.267c-.055-.047-.112-.091-.17-.136A.926.926,0,0,1,5713.006-820.267Z" transform="translate(-5563.829 1020.609)" fill="none" />
      <path id="Path_40928" data-name="Path 40928" d="M5724.849-822.084a1.154,1.154,0,0,0-.259.336,3.37,3.37,0,0,1-.112-.318C5724.6-822.079,5724.726-822.078,5724.849-822.084Z" transform="translate(-5581.082 1021.509)" fill="none" />
      <path id="Path_40929" data-name="Path 40929" d="M5734.927-823.875a1.3,1.3,0,0,0-.434.271c-.01-.237-.015-.487-.017-.752C5734.624-824.191,5734.774-824.031,5734.927-823.875Z" transform="translate(-5595.808 1022.725)" fill="none" />
      <path id="Path_40930" data-name="Path 40930" d="M5673.138-790.271a1.224,1.224,0,0,0-.009.528A.361.361,0,0,1,5673.138-790.271Z" transform="translate(-5505.456 1004.482)" fill="none" />
      <path id="Path_40931" data-name="Path 40931" d="M5794.418-1110.044a.993.993,0,0,0-.047.164c-.027-.052-.054-.1-.08-.153C5794.334-1110.04,5794.375-1110.039,5794.418-1110.044Z" transform="translate(-5683.099 1175.637)" fill="none" />
      <path id="Path_40932" data-name="Path 40932" d="M5906.009-977.725q.212-.162.415-.328c-.109.157-.221.312-.335.468-.027-.046-.051-.094-.08-.14Z" transform="translate(-5847.025 1104.99)" fill="none" />
      <path id="Path_40933" data-name="Path 40933" d="M5714.844-963.744a.945.945,0,0,0-.271.055c-.028.01-.051.023-.077.034,0-.225.009-.447.011-.671C5714.625-964.123,5714.737-963.93,5714.844-963.744Z" transform="translate(-5566.438 1097.643)" fill="none" />
      <path id="Path_40934" data-name="Path 40934" d="M5743.19-1070.466a.988.988,0,0,0-.145.227,2.347,2.347,0,0,1-.086-.246C5743.038-1070.483,5743.112-1070.471,5743.19-1070.466Z" transform="translate(-5608.013 1154.464)" fill="none" />
      <path id="Path_40935" data-name="Path 40935" d="M5741.49-1088.229l-.012-.012h.017Z" transform="translate(-5605.63 1163.968)" fill="none" />
      <path id="Path_40936" data-name="Path 40936" d="M5735.457-1056.929c0-.01.013-.016.019-.027a1.219,1.219,0,0,0,.113-.371c.09.1.182.2.268.3A4.059,4.059,0,0,1,5735.457-1056.929Z" transform="translate(-5597.193 1147.421)" fill="none" />
      <path id="Path_40937" data-name="Path 40937" d="M5906.166-983.988h.006l0,0Z" transform="translate(-5846.846 1108.167)" fill="none" />
      <path id="Path_40938" data-name="Path 40938" d="M5780.266-850.109a.9.9,0,0,0,.1-.076c0,.041.009.08.014.121Z" transform="translate(-5662.543 1036.55)" fill="none" />
      <path id="Path_40939" data-name="Path 40939" d="M5900.4-900.362l.018-.012c0,.032,0,.066.006.1C5900.418-900.3,5900.412-900.333,5900.4-900.362Z" transform="translate(-5838.423 1063.413)" fill="none" />
      <path id="Path_40940" data-name="Path 40940" d="M5776.074-856.512a.587.587,0,0,0,.174.03c-.05.05-.1.1-.152.147C5776.088-856.395,5776.08-856.453,5776.074-856.512Z" transform="translate(-5656.461 1039.937)" fill="none" />
      <path id="Path_40941" data-name="Path 40941" d="M5732.552-853.43c.043-.013.079-.032.119-.047-.014.052-.026.1-.04.156C5732.605-853.358,5732.578-853.392,5732.552-853.43Z" transform="translate(-5592.657 1038.312)" fill="none" />
      <path id="Path_40942" data-name="Path 40942" d="M5889.412-845.355h0l0,0Z" transform="translate(-5822.303 1033.965)" fill="none" />
      <path id="Path_40943" data-name="Path 40943" d="M5897.317-916.051h0l-.006-.051c.015.009.032.016.047.024l-.041.027Z" transform="translate(-5833.917 1071.831)" fill="none" />
      <path id="Path_40944" data-name="Path 40944" d="M5901.615-1136.055c-.02-.009-.039-.02-.06-.028C5901.574-1136.073,5901.6-1136.066,5901.615-1136.055Z" transform="translate(-5840.147 1189.574)" fill="#24212b" />
      <path id="Path_40945" data-name="Path 40945" d="M5927.032-1128.548l.177-.271A.607.607,0,0,1,5927.032-1128.548Z" transform="translate(-5877.581 1185.686)" fill="#24212b" />
      <path id="Path_40946" data-name="Path 40946" d="M5944.825-1184.377c.915,3.327,1.405,6.77,2.126,10.337.456-1.777.868-3.387,1.281-4.995h0c.072-.076.144-.141.216-.213,3.688-3.729,7.409-3.925,12.138-.638l.042.028a1.159,1.159,0,0,0,.494,1.12l.258.7h0c.232.308.13.845.644.961q.09,1.156.181,2.312h0c.411,6.3-5.225,8.78-10.863,7.462a.7.7,0,0,0-.218-.175l-.624-.5h0a17.513,17.513,0,0,1-3.373-4.971c.713,4.373,1.46,8.741,2.132,13.12q2.035,13.258,4,26.526c.222,1.49.355,2.96,2.286,3.185h0a7.687,7.687,0,0,0,4.3,1.448c.646.062,1.281.385,1.175,1.136-.1.7-.646.963-1.391.772-1.03-.264-2.157,0-3.142-.555h0c-3.528-2.569-6.4-.935-9.072,1.5-1.769,1.613-3.41,3.367-5.086,5.08-.509.52-.943,1.092-1.723.41-.727-.637-.113-1.216.2-1.6,2.453-3.009,5.033-6.017,8.566-7.68,2.07-.974,2.172-2.151,1.89-3.95-1.233-7.855-2.377-15.725-3.641-23.575-1.508-9.372-2.743-18.805-5.1-28.011-1.847-7.206-4.382-14.2-8.805-20.3-4.525-6.25-10.919-8.373-17.673-5.993h0a1.026,1.026,0,0,0-.947.407c0-.01,0-.019,0-.028h0c-4.514,1.743-6.827,5.62-6.827,11.774,0,4.517,1.085,8.885,2.147,13.245,2.2,9.029,2.883,18.3,4.227,27.457,1.59,10.852,2.974,21.734,4.447,32.6.7,5.2,1.457,10.4,2.078,15.615.218,1.832.733,2.432,2.323,1.119a49.669,49.669,0,0,0,13.088-8.237c.608-.508,1.322-1.748,2.275-.556.814,1.018-.38,1.518-.928,2.009a51.227,51.227,0,0,1-13.6,8.733c-5.769,2.54-11.266,5.511-15.568,10.26a25.92,25.92,0,0,0-2.3,3.185c-.371.562-.736,1.08-1.461.73-.821-.4-.358-.944-.146-1.544.756-2.129,2.325-3.632,3.863-5.139a36.722,36.722,0,0,1,9.063-6.409,2.511,2.511,0,0,0,1.588-3.08c-.687-4.412-1.226-8.848-1.823-13.285-1.04.109-1.271.857-1.664,1.383-6.455,8.628-11.663,17.852-13.586,28.632a18.375,18.375,0,0,0-.1,5.78c.835,5.965,5.578,8.918,12.032,7.577a27.99,27.99,0,0,0,12.548-6.694,83.329,83.329,0,0,0,13.965-15.763c.221-.317.457-.626.662-.953.433-.691.956-1.413,1.833-.856.961.61.305,1.339-.129,1.968a84.131,84.131,0,0,1-13.865,16.155c-.7.606-1.375,1.24-2.061,1.86h0l-.181.125c-3.635,2.514-7.293,4.956-11.714,5.962-9.028,2.055-15.213-2.658-15.21-11.711a25.478,25.478,0,0,1,.477-4.843,61.611,61.611,0,0,1,12.288-26.251c3.146-4.028,4.216-7.661,3.356-12.772-2.2-13.106-3.825-26.315-5.428-39.514-.9-7.39-2.911-14.537-4.154-21.844h0c0-.026-.006-.052-.009-.079a34.335,34.335,0,0,1-.235-6.639c.621-7.564,4.936-12.176,12.3-13.153a18.877,18.877,0,0,1,10.2,1.489l.651.344C5938.764-1205.328,5941.929-1194.905,5944.825-1184.377Zm13.955,6.353.07.052-.052-.051q-.237-.234-.473-.469l-.027.027.481.44.018,0Zm-1.135,8.293c1.747-.463,2.258-1.975,2.532-3.541a3.544,3.544,0,0,0-.28-2.031,5.844,5.844,0,0,0-.168.838,2.242,2.242,0,0,1-2.009,2.205c-1.291.242-1.916-.719-2.473-1.677a4.034,4.034,0,0,1,.324-4.567,3.636,3.636,0,0,1,2.239-.393h0c.166.132.332.263.5.394-.005.014-.006.025-.011.04l.026-.027-.015-.013c.11-.347-.127-.43-.405-.484l-.086.083.086-.083c-1.967-2.076-3.767-1.728-5.183,1a6.455,6.455,0,0,0,.92,6.541A3.618,3.618,0,0,0,5957.645-1169.731Zm-.493-6.785c-.065-.048-.338.046-.388.141-.444.839,0,1.386.764,2.069C5958.073-1175.353,5957.853-1176,5957.151-1176.516Zm-7.631,2.165c0,2.1.658,3.825,2.682,4.787.113.137.215.355.4.088.015-.022-.148-.169-.229-.258h0a15.449,15.449,0,0,1-2.206-5.614h0c.08-.805.159-1.61.263-2.671C5949.173-1176.805,5949.483-1175.551,5949.521-1174.352Z" transform="translate(-5900.069 1231.49)" fill="#24212b" />
      <path id="Path_40948" data-name="Path 40948" d="M5597.786-920.977c4.57,1.2,8.452-.472,11.771-3.309,8.976-7.674,12.329-17.9,11.667-29.273-.48-8.222-2.158-16.375-3.306-24.558s-2.325-16.362-3.41-24.554c-.11-.832-.746-2.286.788-2.467,1.392-.164,1.1,1.3,1.218,2.086.923,6.186,1.7,12.393,2.64,18.576.567,3.752.7,7.578,1.812,11.243.009.029.015.058.024.086h0l-.026-.033h0c.172,5.487,1.374,10.846,2.064,16.267.4,3.161.167,6.314.324,9.495l2.743-.253h0l0,0a32.144,32.144,0,0,0,4.6-5.7,3.745,3.745,0,0,1,4.65-1.576c2.151.827,3.731.19,5.238-1.266a16.98,16.98,0,0,1,1.953-1.641c1.627-1.155,3.272-1.523,4.68.312a2.011,2.011,0,0,0,1.856.651,58.839,58.839,0,0,1,13.482,2.139,122.276,122.276,0,0,1,14.151,4.913l.115.045c0-.041-.01-.08-.015-.121-.806-6.754-1.459-13.232-2.744-19.636-.108,2.17-.06,4.334-.123,6.5a21.678,21.678,0,0,1-.863,5.949c-.22.7-.571,1.381-1.472,1.059-.747-.267-.63-.892-.483-1.556,1.318-5.958.857-12.014.967-18.039.019-1.075-.3-1.3-1.358-1.04-10.988,2.749-21.625,6.152-29.371,15.174a5.78,5.78,0,0,1-1.387,1.226,1.181,1.181,0,0,1-1.5-.1c-.541-.55-.146-1.011.252-1.387,4.274-4.027,8.308-8.345,13.741-10.926a95.448,95.448,0,0,1,17.323-5.781c1.9-.489,2.4-1.262,2.321-3.133a271.536,271.536,0,0,1,.289-34.552,34.191,34.191,0,0,1,3.736-12.241c3.374-6.931,8.294-9.232,15.78-7.629,4.842,1.036,7.563,4.282,8.81,8.849a12.021,12.021,0,0,0,1.2,3.688c.418.637.58,1.33-.255,1.78-.781.421-1.133-.172-1.4-.751a1.821,1.821,0,0,0-2.6-1.105,1.315,1.315,0,0,1-1.845-1.2c.027-2.257-1.246-2.2-2.9-2.034-2.823.276-5.76.909-7.988-1.742-.588-.7-1.373-.349-1.847.163-1.549,1.67-3.594,2.667-5.324,4.068a7.751,7.751,0,0,0-3.188,6.167c-.021,2.858-.367,5.713-.512,8.572a191.751,191.751,0,0,0,.188,25.058c.618,7.721,2.283,15.292,3.22,22.967.342,2.8.714,5.591,1.114,8.688l.023.177c.05-.052.1-.1.151-.147a13.036,13.036,0,0,1,10.513-3.758,11.688,11.688,0,0,1,9.6,5.186c.027.037.054.071.081.109.013-.055.025-.1.04-.156.228-.907.391-1.471.5-2.041,1.642-8.27,3.146-16.565,4.029-24.956,1.37-13.023,2.726-26.055-1.157-38.928-.2-.672-.365-1.484.557-1.74.9-.248,1.18.485,1.408,1.176a48.207,48.207,0,0,1,1.733,7.209c.24,1.415.219,2.864,1.084,4.2a122.921,122.921,0,0,1,12.172,23.936c3.088,8.324,5.334,16.827,4.326,25.85a24.267,24.267,0,0,1-4.5,12.027c-.533.72-1.151,1.172-1.928.694-.71-.437-.279-1.083.1-1.6,5.189-7.158,5.193-15.186,3.733-23.369-1.923-10.8-6.494-20.6-11.771-30.1-.542-.974-1.108-1.934-1.9-3.3l-.337-.582c0,.224-.009.447-.012.671a234.417,234.417,0,0,1-7.991,58.687c2-.347,4.488-.974,6.415-.125,3.712,1.634,7.424,1.135,11.179,1.126a1.563,1.563,0,0,1,.23.027,55.542,55.542,0,0,0,23.9-1.344,57.611,57.611,0,0,1,7.239-1.589c5.4-.863,10.677-.616,15.426,2.5,7.378,4.847,6.785,14.719-1.115,18.635a15.977,15.977,0,0,1-3.906,1.43,105.87,105.87,0,0,1-20.689,2.42c-.77,0-1.766.137-1.8-.936-.028-1.024.9-1.05,1.711-1.062a21.033,21.033,0,0,0,5.854-.509c.087-.025.173-.044.26-.072-.042-.064-.079-.128-.119-.192-1.129-1.821-1.07-3.775-.918-5.715a10.06,10.06,0,0,0-1.176-5.364c-1.012-2.033-2-2.105-3.323-.2a17.532,17.532,0,0,0-2.668,8.3c-.081.732.586,1.941-.876,1.862-1.3-.071-1.2-1.272-1.141-2.157a19.69,19.69,0,0,1,2.165-7.76c2.233-4.317,4.617-4.7,7.81-1.305l.039.037c.021-.014.034-.03.055-.045.62-.438.5-1.213.761-1.81.4-.93.694-2.168,1.882-2.031,1.316.151,1.181,1.466,1.115,2.449-.317,4.672,1.68,8.532,4.073,12.322.982,1.553,1.884.236,2.747.154,1.065-.1.628-.952.357-1.608a21.331,21.331,0,0,1-.855-13.646c.362-1.456-.068-1.984-1.42-2.156a28.043,28.043,0,0,0-9.231.2c-7.689,1.568-15.42,2.593-23.284,1.57a25.092,25.092,0,0,0-5.773-.4c-.9.091-2.178-.3-2.348,1.205-.182,1.616,1.177,1.341,2.054,1.5a8.012,8.012,0,0,1,5.662,4.031c.447.751.246,2.429,1.991,1.6,1.024-.487,1.838,1.121,3.01.18,1.425-1.142,2.494-.345,3.073,1.08a16.337,16.337,0,0,1,.828,7.314c-.023.35-.206.9-.452.993a2.92,2.92,0,0,0-1.125.616.36.36,0,0,0-.008.528,6.794,6.794,0,0,0,1.315.831,13.019,13.019,0,0,0,1.893.877c.814.353,2.121.5,1.572,1.766-.561,1.294-1.65.344-2.407.059-3.12-1.182-5.827-2.857-6.662-6.676-.04-.181-.081-.361-.111-.552-.128.207-.234.384-.325.539a6.378,6.378,0,0,1-.627.98c-1.01,1.121.667,1.973.286,2.99-.514,1.366-2.218-.538-2.855,1.059a1.9,1.9,0,0,1-2.5,1.154c-1.059-.428-1.29-1.481-1.406-2.5a11.233,11.233,0,0,1,1.975-7.25c.968-1.584,1.6-3.229.48-4.991a5.961,5.961,0,0,0-5.088-2.734c-1.4-.074-1.716.342-1.362,1.722.781,3.049,1.013,6.229-.269,9.127a14.633,14.633,0,0,0-1.186,7.851c.513,4.983-.286,5.757-5.111,6.231a114.136,114.136,0,0,1-22.03.113c-.9-.086-2.071-.095-2.493-.983a4.907,4.907,0,0,0-2.792-2.456,2.144,2.144,0,0,1-1.251-2.077.865.865,0,0,1,.63-.871c1.054-.336,1.207.731,1.781,1.145.074.054.239-.018.371-.044l.028-.006,0-.014c.418-1.794.831-3.486-1.365-4.618-.811-.417-.679-1.564.04-2.214.774-.7,1.206-.108,1.525.627.457,1.049,1.344.868,2.19.682,1.736-.382,3.494-.7,5.192-1.207a30.61,30.61,0,0,1,19.574.247c1.167.416,1.643.116,2.153-.882,1.919-3.747,1.789-7.6.726-11.518a1.8,1.8,0,0,0-.4-.8.891.891,0,0,0-.169-.136.979.979,0,0,0-.474-.144c-1.548-.088-3.043-.71-4.767-.638-.125.006-.246,0-.373.018.032.113.073.214.113.318.428,1.1,1.331,1.745,1.872,2.613.838,1.346,1.52,2.719,1.088,4.362a1.194,1.194,0,0,1-1.324,1.036c-.53-.046-.908-.325-.827-.884.593-4.112-2.7-5.5-5.2-8.038-.154-.156-.3-.315-.451-.481,0,.265.006.515.017.751.065,1.557.373,2.529,1.638,3.129.59.28,1.377.825,1.091,1.6-1,2.685.924,3.833,2.519,5.231.435.381,1.508.652.865,1.562-.488.689-1.234.384-1.887.085a55.2,55.2,0,0,0-5.077-2.28c-3.8-1.3-7.644-2.781-11.6-.379-.525.319-1.243.416-1.582-.327-.324-.713.22-1.162.712-1.543,1.748-1.355,3.907-1.325,5.937-1.731,1.812-.361,3.722-.277,5.886-.954.169-.053.335-.1.508-.164-.164-.073-.321-.129-.482-.193a15.592,15.592,0,0,0-6.328-.992c-.713.007-1.5.015-1.536-.966-.036-1.011.856-1.061,1.49-1.047,1.774.038,3.546.216,5.321.338.131.058.3.2.386.157.265-.134.183-.356.05-.558v0c-.329-3.316-1.009-4.29-2.781-3.406-5.68,2.834-12.878,4.233-13.161,12.727-.025.744.109,1.822-1.082,2.039s-.971-1.141-1.654-1.558c-.01-.006-.019-.014-.029-.02s-.012.011-.02.017c-.972.718-.956,1.888-1.374,2.839-.342.778-.236,2.194-1.494,1.878-1.521-.383-.6-1.7-.4-2.531a17.944,17.944,0,0,1,3.409-6.8c2.168-2.784,1.521-5.813.688-8.758a3.728,3.728,0,0,1,0-3.023,3.808,3.808,0,0,0-2.062-5.207,87.638,87.638,0,0,0-16.026-5.374c-.546-.121-1.1-.495-1.666-.039.328.961,1.167,1.256,1.94,1.581,1.869.782,2.277,1.821.6,3.213-1.051.871-.514,1.407.313,1.929.587.371,1.207.7,1.771,1.1,2.63,1.891,2.6,3.219-.133,5.056-1.886,1.268-2.938,2.677-1.453,5,.878,1.372.078,2.521-1.254,2.9a8,8,0,0,0-3.7,2.1,2.136,2.136,0,0,1-1.917.673c-2.062-.5-2.106.7-1.986,2.148a5.864,5.864,0,0,1-.033,1.391c-.168,1.056-.156,2.361-1.421,2.684-1.366.349-1.774-.93-2.311-1.843a13.672,13.672,0,0,1-.74-1.445c-.3-.681-.716-.822-1.193-.236-2.114,2.6-4.183,1.784-6.422.106a4.69,4.69,0,0,0-5.8-.4,8.877,8.877,0,0,1-4.832,1.375c-.053,0-.1.005-.154.005.041.042.082.08.122.12a10.723,10.723,0,0,0,5.257,2.727c12.193,3.258,24.534,5.017,37.183,3.6.785-.088,1.919-.526,2.115.688.23,1.423-1.167,1.1-1.946,1.389a2.7,2.7,0,0,1-.69.086c-12.812,1.2-25.308-.536-37.641-3.947-5.157-1.426-8.236-4.858-9.955-9.755a8.6,8.6,0,0,0-1.306-2.947c-.462-1.126-1.167-2.179-.831-3.773a8.8,8.8,0,0,0-1.718,3.313,33.1,33.1,0,0,1-11.4,13.86,1.154,1.154,0,0,0-.985.486h0c-1.1.367-2.186.779-3.3,1.1-6.271,1.783-10.97-.469-13.526-6.473a29.63,29.63,0,0,1-2.126-8.761c-.84-8.543-1.591-17.094-2.727-25.607-1.013-7.587-1.931-15.187-2.83-22.789-.1-.82-.58-2.148.7-2.359,1.388-.229,1.168,1.188,1.28,2.009.7,5.133,1.406,10.267,1.99,15.415,1.046,9.22,2.411,18.4,3.055,27.67.3,4.314.593,8.668,2.2,12.763,1.08,2.744,2.433,5.291,5.527,6.246.045.014.087.031.132.044Zm25.814-15.931c-.354.6.339.851.373,1.422A1.5,1.5,0,0,0,5623.6-936.907Zm2.436,5.931a8.974,8.974,0,0,0,2.1,3.8C5629.373-930.236,5629.008-930.885,5626.036-930.976Zm17.274-24.88a2.739,2.739,0,0,0,2.467-.276C5644.573-957.3,5644.035-956.114,5643.311-955.857Zm11.884,2.662.182.326.257-.161c-.035-.054-.063-.146-.107-.156A1.574,1.574,0,0,0,5655.195-953.195Zm2.336,2.965c.088.327.086.759.574.723a.569.569,0,0,0,.383-.4c.007-.489-.417-.473-.757-.534-.1-.1-.261-.3-.282-.281-.306.208-.1.351.083.491Zm-2.164,17.5-.032.042-.327.028.119.241.208-.269.063-.005.15-.173-.18.137.014.017Zm-1.016.673c-.051-.035-.1-.1-.152-.1s-.083.084-.122.128c.039.026.092.091.14.087S5654.307-932.012,5654.352-932.055Zm5.836-9.54c.75-.5,2.04-.629,1.935-1.393-.158-1.144-1.594-1.379-2.459-2.187a2.843,2.843,0,0,0-.057.615C5659.783-943.609,5659.978-942.661,5660.188-941.595Zm-1.243,6.885a.62.62,0,0,0-.236-.554c-.772-.218-1.036.37-1.346.932C5658-934.117,5658.581-934.065,5658.945-934.71Zm22.511-94.95c1.673-1.653,3.375-1.711,5.106-.14a4.557,4.557,0,0,0,4.032,1.212c.84-.134,1.686-.257,2.534-.312,3.626-.233,3.627-.224,4.861,3.1,1.285-.453.724-1.464.458-2.1a9.526,9.526,0,0,0-5.633-5.8c-6.694-2.322-11.937-.134-14.775,6.093-.059.148-.117.3-.177.445.163-.039.323-.079.485-.117h0A13.109,13.109,0,0,0,5681.456-1029.66Zm-3.848,102.413c.009-.181-.167-.37-.261-.556-.11.2-.22.4-.375.681.1.138.22.291.338.446C5677.417-926.865,5677.6-927.052,5677.608-927.246Zm67.778-5.445c-.945,3.166,1.155,6.316-.171,9.516,1.47.479,2.846-.147,4.5-.4A37.854,37.854,0,0,1,5745.386-932.691Zm10.907,5.566c.538,1.481,1.287,1.582,2.6.878,3.287-1.756,4.676-4.084,4.238-7.444-.347-2.668-3.746-6.336-6.275-6.874-.908-.193-1.064.274-1.165.951-.229,1.517-.467,3.033-.639,4.141A22.114,22.114,0,0,0,5756.293-927.125Zm8.408-1.392a8.7,8.7,0,0,0,1.027-9.04c-1.539-3.586-6.58-6.23-11.385-6.188C5763.534-940.316,5765.9-936.946,5764.7-928.518Zm-47.881,7.353c1.535-1.005,1.535-1.005.572-3.292A4.485,4.485,0,0,0,5716.82-921.165Zm4.957-9.02c-2.593,1.272-3.039,2.252-2.136,5.456C5720.411-926.832,5722.107-928.056,5721.777-930.185Zm3.847.009c-2.089,1.972-1.974,4.935.337,7.715A20.166,20.166,0,0,0,5725.624-930.176Zm-38.45,9.042c-.879.282-1.789.478-2.682.714-3.712.977-4.138,1.714-3.626,5.6.165,1.255.6,1.371,1.639.932a47.77,47.77,0,0,1,8.5-3,25.332,25.332,0,0,1,16.249,1.781c.352-4.8-.12-5.388-4.328-6.446A28.065,28.065,0,0,0,5687.174-921.134Zm-1.092,8.2a108.265,108.265,0,0,0,20-.393C5698.966-916.545,5692.494-915.907,5686.082-912.937Zm19.824-25.548c1.514.379,1.749-1.143,2.133-1.942.42-.873-.792-.907-1.332-1.077-3.031-.955-5.992-.454-9.381.516A54.023,54.023,0,0,0,5705.905-938.486Zm-9.72,8.1a2.472,2.472,0,0,0,1.749.608C5697.625-930.879,5697.04-930.86,5696.185-930.387Zm.924-19.79c-2-3.573-5.365-4.374-9.086-4.4a10.7,10.7,0,0,0-3.449.434c-4.425,1.219-6.253,4.972-4.58,9.234.293.742.727.667,1.251.613,3.482-.362,6.759.575,9.992,1.649,1.726.573,3.391.693,4.77-.537C5697.2-944.241,5697.813-948.924,5697.109-950.178Zm-7.536,9.265a17.673,17.673,0,0,0-7.751-1.4c-.624.036-1.563-.039-1.637.9-.082,1.049.789,1.174,1.588,1.24A22.946,22.946,0,0,0,5689.573-940.912Zm-8.964,5.9,4.3-3.033C5680.189-938.225,5680.189-938.225,5680.609-935.017Zm-30.738,5.295a1.021,1.021,0,0,0-.781.276c-.411,1,.294,1.609,1.028,2.668C5650.08-928.068,5650.458-928.938,5649.871-929.722Zm-6.8,1.715c-.11.007-.212.13-.325.2.4.277.983.441,1.128.009C5643.993-928.143,5643.379-928.026,5643.072-928.007Zm-12.094-.626c1.029.269,1.823-.267,2.905-1.217-1.3.188-2.137-.87-3.014-.014A1.478,1.478,0,0,0,5630.978-928.634Zm14.042-1.746a26.815,26.815,0,0,0,11.868-6.494,3.686,3.686,0,0,0,1.239-2.887,17.446,17.446,0,0,0-3.5-10.822,7.678,7.678,0,0,0-6.643-3.341,40.946,40.946,0,0,0-15.227,3.418c-4.9,2.193-8.1,9.332-6.685,14.514.275,1.009.744,2.072,1.709,2.363C5633.41-931.934,5638.818-928.945,5645.02-930.379Zm-22.07-14.216c-.507,1.952-1.016,3.9-1.61,6.185C5625.334-939.672,5622.522-942.555,5622.949-944.595Z" transform="translate(-5558.986 1136.284)" fill="#24212b" />
      <path id="Path_40949" data-name="Path 40949" d="M5745.068-1176.808h0a13.578,13.578,0,0,1,4.188-9.676c1.58-1.5.563-3.948.245-5.952-.2-1.259-.186-2.162,1.365-2.261a23.577,23.577,0,0,1-.74,16.819c-.228.574-.576,1.226-1.345.924-.8-.316-.774-.953-.494-1.725.545-1.495,1.376-2.937,1.123-4.63a2.7,2.7,0,0,0,.269-.224c.009-.009-.075-.106-.115-.162-.069.109-.141.218-.211.326l.008.009-.008-.009c-1.839,1.635-1.893,3.931-2.25,6.108-.172,1.048.737,1.546,1.343,2,.769.575.8-.578,1.238-.87,2.476-1.661,5.742-2.688,7.738.849,2.6,4.611,4.878,9.372,2.321,14.824-.282.6.042.855.443,1.1,4.463,2.714,10.285,2.927,14.293-1.154.709-.722.905-1.21.119-2.275-1.707-2.31-1.562-5.277-1.929-7.989-.3-2.189-.775-4.44-.333-6.676.173-.871-.287-.874-.853-.933-6.222-.648-10.229-4.67-13.913-9.164a53.85,53.85,0,0,1-5.057-7.477c-.37-.648-.493-1.752-1.7-1.589-5.346-.836-8.285-4.848-7.487-10.226a3.75,3.75,0,0,1,2.458-3.358,5.608,5.608,0,0,1,5.042.947c.6.443.372,1.111.324,1.713-1.083.279-1.928-.39-2.859-.718-1.458-.512-2.356.021-2.861,1.453-1,2.828.986,6.894,3.842,7.8.418.133.922.462.942-.369.013-.593.136-1.112.83-1.174.91-.082,1.124.7,1.429,1.3a62.6,62.6,0,0,0,7.326,11.25,24.249,24.249,0,0,0,6.929,6.1c4.8,2.631,9.65,1.592,12.939-2.777,3.029-4.022,4.142-8.77,4.891-13.59a79.516,79.516,0,0,0,.732-15.494c-.088-2.13-.992-2.612-2.791-1.535-.739.442-1.538,1.611-2.258.321-.565-1.011.591-1.591,1.326-2.1a16.921,16.921,0,0,1,1.9-.971c-8.663-1.214-17.02-1.613-25.3.785a35.733,35.733,0,0,0-13.745,5.578c-.767.5-1.458,1.152-2.483.984-1.157-1.152-.947-2.717-1.159-4.117-1.646-10.941,3.434-20.642,13.162-25.073a68.036,68.036,0,0,1,7.917-3.109c11.226-3.494,24.884-.486,27.077,15.29.167,1.2.674,1.621,1.924,1.717,4.346.336,8.6,1.139,12.283,3.684,1.879,1.3,3.713,2.863,3.494,5.374s-2.478,3.381-4.486,4.189c-4.117,1.657-8.5,2.223-12.845,2.9-.655.1-1.681-.367-1.753.91-.589,6.908-.764,13.883-3.471,20.437-.6,1.45,1,1.865,1.5,2.8.208,1.287,1.152,1.364,2.215,1.512a47.184,47.184,0,0,1,19.49,6.893c1.847,1.2,3.777,2.365,4.966,4.331.051.085.109.162.157.25l-.007.161.145.084a1.11,1.11,0,0,1-.424.685l-.029.005.453-.69-.453.69-.01,0h-.02a2.432,2.432,0,0,1-2.046-.848c-4.882-4.439-10.719-6.965-17.054-8.476a15.022,15.022,0,0,0-5.427-.81c-.042.005-.083,0-.127.01.027.054.054.1.081.153a9.051,9.051,0,0,1,.772,1.623c.609,2.241.954,4.739-1.037,6.233a7.357,7.357,0,0,0-2.3,3.429,26.845,26.845,0,0,1-1.754,3.258c-1.572,2.527-4.157,4.274-5.832,6.534a13.618,13.618,0,0,1-16.871,3.772c-1.776-.881-3.233-2.635-5.6-2.026-.385.1-1.024-.366-1.4-.723-2.474-2.337-6.233-3.349-7.354-7.1-.065-.22-.463-.371-.733-.494-1.562-.71-2.076-2.122-2.68-3.591-.732-1.782.159-3.389.172-5.075A2.005,2.005,0,0,0,5745.068-1176.808Zm17.952-46.377c.064,1.214.585,1.614,1.79,1.19a77.725,77.725,0,0,1,17.856-3.912c1.219-.127,1.616-.5,1.278-1.738-.467-1.711-.643-3.508-1.192-5.188-1.82-5.561-6.085-8.911-11.937-9.009-7.992-.133-7.667-.608-8.091,7.29-.066,1.235-.01,2.476-.01,3.714l-.113,0C5762.74-1228.286,5762.886-1225.736,5763.02-1223.185Zm21.356-11.387c1.136,2.684,1.151,5.638,1.958,8.726C5787.279-1228.008,5786.432-1231.587,5784.376-1234.572Zm-37.652,19.164c4.051-2.261,8.438-3.209,12.651-4.653.967-.331,1.817-.584,1.716-2-.436-6.063-1.09-12.132.188-18.567-4.426,1.676-8.479,3.055-11.916,5.757-2.182,1.716-2.679,4.267-3.182,6.741A25.585,25.585,0,0,0,5746.724-1215.409Zm-3.833,1.12c.072.4.154.8.689.631a1.29,1.29,0,0,0,1.014-1.747,35.577,35.577,0,0,1-1-9.228A20.085,20.085,0,0,0,5742.891-1214.289Zm45.209,1.111c-.238.376-.677.672-.416,1.453,5.193-.739,10.483-1.21,15.292-3.691,2.109-1.088,2.245-2.233.511-3.975-2.877-2.892-6.646-3.806-10.5-4.358-8.034-1.149-15.806.4-23.532,2.552,3.457.187,6.92.136,10.344.655a53.652,53.652,0,0,1,5.928.962C5789.437-1218.579,5790.17-1216.426,5788.1-1213.178Zm-43.388,39.828c-.384,1.368.006,2.535,1.074,4.1A4.748,4.748,0,0,0,5744.711-1173.35Zm4.146,5.471c-.091-.072-.553.1-.563.186a2.234,2.234,0,0,0,1.356,2.319C5749.365-1166.246,5749.643-1167.257,5748.857-1167.879Zm4.038,3.565a13.5,13.5,0,0,0-2.081-7.1A15.261,15.261,0,0,0,5752.9-1164.314Zm-.215-9.673c-.311-.416-.758-1.267-1.411-.668-.594.545.274.871.562,1.255a15.76,15.76,0,0,1,2.965,12.369c1.323-.276,1.29-1.232,1.3-1.882A17.549,17.549,0,0,0,5752.68-1173.987Zm5.538,12.02-.028-.029-.128.1Zm-3.208-12.935c-.014-.04-.03-.079-.044-.119h0c-.019.01-.032.011-.05.019l-.258-.258c-.082.3.027.36.258.258l.023.022c.024.025.046.053.071.078,1.124,3.2,2.816,6.216,2.979,9.71.049,1.046.146,2.089.223,3.134-.008.02-.013.042-.022.061l.028.029c0-.03,0-.06-.006-.09C5759.6-1165.476,5758.022-1171.785,5755.009-1174.9Zm20.62-2.883c-1.589.245-1.176,1.365-1.064,2.3.4,3.281.9,6.55,1.244,9.837.116,1.124.2,1.994,1.633,1.886,1.35-.1,1.282-1.074,1.291-2.011.006-.615,0-1.231,0-1.846a70.6,70.6,0,0,0-1.157-8.459C5777.4-1177.116,5777.032-1178,5775.629-1177.785Zm7.3-7.663c-.058-.04-.408.177-.459.331-.127.379.184.463.572.531l.411-.272A2.926,2.926,0,0,0,5782.926-1185.448Zm-5.548,5.636c3.661,2.8,4.219-2.258,6.5-2.4C5781.582-1183.027,5781.582-1183.027,5777.378-1179.812Zm4.721,5.944c-.265.62.06,1.186.147,1.772.078.533.141,1.067.255,1.944C5783.767-1172.865,5783.767-1172.865,5782.1-1173.869Zm3.875-6.146a4.086,4.086,0,0,0,.008,4.656A4.588,4.588,0,0,0,5785.973-1180.015Z" transform="translate(-5676.225 1247.502)" fill="#24212b" />
      <path id="Path_40950" data-name="Path 40950" d="M5575.539-1197.3c.074-1.448-.251-2.069-1.792-2.221-7.257-.718-6.719-.361-7.9-7.923a238.342,238.342,0,0,1-2.993-38.361,6.761,6.761,0,0,0-.068-.691h0c.366-3.253.694-3.54,4.013-3.749,1.851-.116,3.7-.371,5.55-.441q23.088-.865,46.182-.192c8.73.258,17.474.3,26.158,1.49,2.228.306,3.261,1.243,3.382,3.523a220.125,220.125,0,0,1-2.118,41.166c-.411,3.062-2.009,4.51-4.946,4.757-17.98,1.639-36,1.423-54.017,1.065a5.1,5.1,0,0,0-4.165,1.457h0c-2.315,1.26-4.163,3.237-6.6,4.305C5574.972-1194.338,5575.466-1195.905,5575.539-1197.3Zm2.152-1.372a2.045,2.045,0,0,0,.371,1.942c1.486-1.017,3.052-1.969,4.475-3.1A5.6,5.6,0,0,1,5586.4-1201c16.236.337,32.472.5,48.7-.465a24.509,24.509,0,0,0,6.845-.951c1.584.12,1.652-1.107,1.856-2.149a121.266,121.266,0,0,0,1.752-15.194,238.833,238.833,0,0,0,.6-24.819c-.064-1.805-.425-2.665-2.545-2.943a199.951,199.951,0,0,0-20.37-1.2c-15.595-.446-31.2-.4-46.8-.065-3.092.066-6.186.25-9.265.534-.8.074-2.211-.364-2.216,1.291-.471,7.439.324,14.833.917,22.222a166.4,166.4,0,0,0,2.544,20.224c.344,1.675.938,2.677,2.781,2.719,1.307.03,2.611.376,3.914.366C5577.061-1201.443,5578.027-1200.76,5577.691-1198.675Z" transform="translate(-5429.396 1251.178)" fill="#24212b" />
      <path id="Path_40951" data-name="Path 40951" d="M5903.5-1140.149h0Z" transform="translate(-5842.938 1191.751)" fill="#4cea67" />
      <path id="Path_40952" data-name="Path 40952" d="M5864.343-1180.546a35.749,35.749,0,0,1,13.745-5.578c-.092,1.671.821,3.331.051,5.012-.191.414-.224,1.088-.526,1.233-2.448,1.175-2.282,3.552-2.706,5.654-.143.713-.292,1.4-1.126,1.564-.924.178-1.425-.393-1.8-1.137a5.924,5.924,0,0,1-.909-2.6h0c.047-.6.279-1.269-.324-1.713a5.608,5.608,0,0,0-5.042-.947,3.755,3.755,0,0,0-2.458,3.358c-.8,5.378,2.143,9.39,7.489,10.225q.021.96.044,1.919h0c-1.549.1-1.564,1-1.365,2.261.319,2,1.335,4.45-.245,5.951a13.58,13.58,0,0,0-4.188,9.676h0l-1.9.064c-.29-1.1-1.1-1.126-2-.969h0c-1.612-4.161-1.22-8.517-1-12.8.09-1.777-.272-2.512-1.968-2.584a.839.839,0,0,0-.5-.884c-.018-.011-.042-.018-.062-.028a1,1,0,0,0-.095-.043h0l-.26-.7c-.047-.428.018-.9-.476-1.142,0-.011,0-.023,0-.034a28.269,28.269,0,0,1,1.6-7.088c.922-2.706,3.128-4.782,3.534-7.691h0C5862.884-1179.394,5863.576-1180.048,5864.343-1180.546Z" transform="translate(-5796.144 1216.358)" fill="#4cea67" />
      <path id="Path_40953" data-name="Path 40953" d="M5741.494-1088.214v.013a.259.259,0,0,1-.023.02Z" transform="translate(-5605.627 1163.953)" fill="#4cea67" />
      <path id="Path_40954" data-name="Path 40954" d="M5700.714-1103.235a1.116,1.116,0,0,0,.424-.686l-.145-.084.008-.161c.035-.091.063-.184.1-.275a62.059,62.059,0,0,0,1.949-8.225c.627-2.905,1.243-3.424,4.174-3.541a48.236,48.236,0,0,1,8.973.515c3.484.512,4.194,1.427,3.433,4.951a118.369,118.369,0,0,1-3.9,14.7c-1.668-2.869-3.313-5.755-5.906-7.932a14.181,14.181,0,0,0-1.834-1.395c-1.114-.659-2.3-1.535-3.562-.365-1.151,1.067-.792,2.39-.357,3.659.234.681.588,1.382,1.451,1.178.953-.226.8-.974.538-1.674a1.5,1.5,0,0,1,.042-1.5c3.885,2.164,6.152,5.6,7.8,9.56l-5.736.128-.263.005a50.58,50.58,0,0,0-7.773-2.887h0c-.145-2.012.82-3.92.556-5.944l0,0C5700.692-1103.214,5700.7-1103.225,5700.714-1103.235Z" transform="translate(-5564.809 1178.954)" fill="#4cea67" />
      <path id="Path_40955" data-name="Path 40955" d="M5741.495-1088.242h0l0,.013-.021.033.014-.033.005-.013Z" transform="translate(-5605.63 1163.968)" fill="#4cea67" />
      <path id="Path_40956" data-name="Path 40956" d="M5720.514-1241.143h0a6.627,6.627,0,0,1,.068.691,238.343,238.343,0,0,0,2.993,38.361c1.182,7.562.646,7.205,7.9,7.923,1.54.152,1.865.773,1.791,2.221-.071,1.4-.565,2.965.683,4.185a2.227,2.227,0,0,0-.683.107c-2.363,1.208-2.566,1.193-2.309-1.5.24-2.488-1.04-3.06-3.019-3.2a13.955,13.955,0,0,1-2.079-.1c-1.745-.392-3.7-.4-4.118-2.886-.788-4.69-1.516-9.385-2-14.118q-.645-6.305-1.05-12.629c-.363-5.527-.914-11.042-.774-16.587C5717.958-1240.224,5718.648-1241.368,5720.514-1241.143Z" transform="translate(-5587.127 1245.822)" fill="#fefefe" />
      <path id="Path_40957" data-name="Path 40957" d="M5868.594-911.5h0l.025.033h0c0-.033,0-.066-.006-.1-.165-2.54-.223-5.059,1.4-7.259h0l.042-.027c6.026-4.029,10.4-3.011,12.952,2.72.081,1.443.647,2.824.32,4.326-.869,3.989-3.658,5.841-9.126,5.947l-1.768-.629A12.6,12.6,0,0,1,5868.594-911.5Zm2.481.332a2.921,2.921,0,0,0,1.623,2.1l.482.45c.111.137.211.358.4.092.017-.024-.146-.173-.224-.265h0c-.14-.173-.279-.346-.419-.52v0q-.732-1.8-1.461-3.6a12.477,12.477,0,0,1,.283-4.54c-1.761,2.252-1.314,4.259-.684,6.282Zm7.84,2.385a3.383,3.383,0,0,0,2.3-3.131c.059-.532.123-1.062.186-1.594h0c-.114-1.47-.25-2.929-1.462-3.995h0l-1.16-.959c-2.177-1.279-3.1-1.091-4.621.943h0l.014,0a1.523,1.523,0,0,0-.206.438l-.177.369h0c-1.214,2.6-.14,4.793,1.415,6.761A3.3,3.3,0,0,0,5878.915-908.786Z" transform="translate(-5806.616 1074.607)" fill="#24212b" />
      <path id="Path_40958" data-name="Path 40958" d="M5882.184-913.835c-.01-.063-.021-.125-.037-.188a1.321,1.321,0,0,1,.156.049C5882.262-913.928,5882.225-913.882,5882.184-913.835Z" transform="translate(-5811.815 1070.719)" fill="#24212b" />
      <path id="Path_40959" data-name="Path 40959" d="M5725.462-1072.549l.19.115c1.385.838,2.773,1.671,4.156,2.516.641.392,1.651.787,1.1,1.68-.533.866-1.477.43-2.242-.007-1.675-.956-3.315-1.986-5.051-2.818a16.169,16.169,0,0,0-6.066-2.07c-.077,0-.151-.017-.229-.02a2.57,2.57,0,0,0,.086.246c.363.967,1.141,1.286,1.731,1.749a64.586,64.586,0,0,1,7.467,6.207c.708.75,2.086,1.682,1.071,2.915-.85,1.033-1.989.094-2.9-.353a21.8,21.8,0,0,0-9.059-2.549c-.709-.02-1.993.242-1.828-1.1.14-1.136,1.246-.85,2.067-.939,1.5-.162,2.974.66,4.681.339a4.061,4.061,0,0,0,.4-.094c-.086-.108-.179-.2-.268-.3-1.442-1.644-3.255-2.51-4.612-3.886-.985-1-2.762-1.727-2.157-3.472.613-1.772,2.426-.744,3.688-1.04h0A50.6,50.6,0,0,1,5725.462-1072.549Zm-4.047,6.5.374-.249a2.288,2.288,0,0,0-.446-.336c-.059-.026-.193.12-.294.187Z" transform="translate(-5582.374 1157.131)" fill="#24212b" />
      <path id="Path_40960" data-name="Path 40960" d="M5636.686-1140.944c-.3,1.692-1.8,1.513-2.908,1.726-6.451,1.239-13.03,1.093-19.54,1.321-11.123.389-22.27.112-33.406.1-.812,0-1.738.273-2.327-.623h0a5.1,5.1,0,0,1,4.165-1.456C5600.687-1139.521,5618.706-1139.3,5636.686-1140.944Z" transform="translate(-5425.076 1192.176)" fill="#fefefe" />
      <path id="Path_40961" data-name="Path 40961" d="M5697.009-1092.621a1.5,1.5,0,0,0-.041,1.5c.26.7.414,1.449-.538,1.675-.863.2-1.218-.5-1.452-1.178-.434-1.269-.793-2.593.359-3.659,1.262-1.169,2.448-.294,3.562.365a14.049,14.049,0,0,1,1.833,1.395c2.593,2.177,4.239,5.064,5.906,7.932.265.642.515,1.29.8,1.924a94.275,94.275,0,0,1,5.8,18.743c.167.781.433,1.615-.642,1.874-.983.237-1.047-.7-1.311-1.291a6.835,6.835,0,0,1-.23-1.131c-1.57-6.367-3.033-12.771-6.244-18.587h0C5703.161-1087.019,5700.895-1090.457,5697.009-1092.621Z" transform="translate(-5555.723 1167.51)" fill="#24212b" />
      <path id="Path_40962" data-name="Path 40962" d="M5920.582-1085.59q-1.965-13.268-4-26.526c-.672-4.38-1.419-8.747-2.132-13.12a17.5,17.5,0,0,0,3.373,4.971h0c-.013.179-.024.358-.036.538h0c.006,3.969,1.163,7.792,1.527,11.717.016.176.46.312.707.466q0,.467.009.934h0c-.64,2.84.5,5.524.758,8.285.49,5.328,1.9,10.544,2.076,15.919h0C5920.937-1082.629,5920.8-1084.1,5920.582-1085.59Z" transform="translate(-5867.394 1183.768)" fill="#cff9da" />
      <path id="Path_40963" data-name="Path 40963" d="M5911.223-1000.337c-.79.3-1.581.6-2.368.9a29.945,29.945,0,0,1-9.024,1.755c-.766.051-1.953.073-2.028-1.019-.084-1.2,1.021-1.1,1.869-1.109a10.834,10.834,0,0,0,1.155-.01c3.822-.469,7.657-.912,10.734-3.6l0,0a3.426,3.426,0,0,0,.984-3.774,4.406,4.406,0,0,1,.238-3.388c.711-1.446.872-2.735-.49-3.97a1.923,1.923,0,0,1-.171-2.376,1.347,1.347,0,0,0-.075-1.7c-.522-.555-.593-1.123.1-1.522.631-.363,1.193.021,1.638.475a2.335,2.335,0,0,1,.545,2.758,1.529,1.529,0,0,0,.2,1.877c1.243,1.381,1.051,2.961.434,4.568-.271.708-.849,1.411-.59,2.192,1.117,3.368-.338,5.674-2.742,7.619q-.2.165-.416.328Z" transform="translate(-5852.24 1127.601)" fill="#24212b" />
      <path id="Path_40964" data-name="Path 40964" d="M5788.517-1147.768c2.707-6.554,2.88-13.529,3.47-20.437a20.847,20.847,0,0,1,2.626,7.357c.2.919.187,2.17-.646,2.561-2.073.975-1.216,2.458-.968,3.869a26.725,26.725,0,0,1,.637,3.167c.175,3.4-.4,5.51-3.615,6.287h0C5789.52-1145.9,5787.917-1146.318,5788.517-1147.768Z" transform="translate(-5680.657 1206.767)" fill="#4cea67" />
      <path id="Path_40965" data-name="Path 40965" d="M5897.5-807.13h0a33.1,33.1,0,0,0,11.4-13.86,8.786,8.786,0,0,1,1.719-3.312c-.335,1.595.368,2.648.83,3.773-1.562,2.362-2.96,4.857-4.729,7.054-2.409,2.995-5.127,5.726-9.223,6.355A.055.055,0,0,0,5897.5-807.13Z" transform="translate(-5848.093 1022.696)" fill="#cff9da" />
      <path id="Path_40966" data-name="Path 40966" d="M5890.472-1097.135Z" transform="translate(-5823.853 1168.728)" fill="#24212b" />
      <path id="Path_40967" data-name="Path 40967" d="M5889.783-1094.66c3.641-3.031,8.065-4.567,12.314-6.436h0c.9-.157,1.706-.127,1.995.969h0l-.309.806a46.005,46.005,0,0,0-11.6,5.307c-.759.481-1.461,1.279-2.389.288h0C5889.788-1094.038,5889.786-1094.349,5889.783-1094.66Z" transform="translate(-5837.153 1170.885)" fill="#24212b" />
      <path id="Path_40968" data-name="Path 40968" d="M5874.24-905.873c.328-1.5-.24-2.884-.32-4.326a6.751,6.751,0,0,1,.578,8.95c-2.618,3.069-5.945,3.539-9.385,1.324h0C5870.581-900.031,5873.37-901.883,5874.24-905.873Z" transform="translate(-5797.526 1068.672)" fill="#4cea67" />
      <path id="Path_40969" data-name="Path 40969" d="M5730.606-1038.927a31.639,31.639,0,0,0-9.074-3.323c-.662-.11-1.286-.259-1.2-1.076.1-.982.909-.861,1.827-.87a33.675,33.675,0,0,1,9.307,3.393c.739.374,1.8.733,1.3,1.8C5732.247-1037.887,5731.344-1038.553,5730.606-1038.927Z" transform="translate(-5587.2 1140.393)" fill="#24212b" />
      <path id="Path_40970" data-name="Path 40970" d="M5663.826-808.2a1.087,1.087,0,0,1-.9,1.383c-.866.22-1.07-.492-1.148-1.089-.215-1.676-.348-3.363-.484-4.757.239-1.683.427-3.054.629-4.424.115-.781.251-1.7,1.295-1.542.946.14.77,1.072.673,1.708A21.931,21.931,0,0,0,5663.826-808.2Z" transform="translate(-5490.839 1019.668)" fill="#24212b" />
      <path id="Path_40971" data-name="Path 40971" d="M5990.242-1207.224c-.146,1.7-1.837,2.338-2.566,3.691-2.386,4.424-2.227,9.23-1.405,13.755,1.592,8.767,3.673,17.432,4.621,26.328.807,7.556,2.049,15.064,3.1,22.594.881,6.313,1.871,12.613,2.612,18.942.643,5.494,1.767,10.928,2.038,16.467-1.59,1.313-2.1.713-2.324-1.119-.62-5.214-1.372-10.412-2.076-15.615-1.473-10.87-2.856-21.752-4.448-32.6-1.343-9.161-2.022-18.427-4.225-27.456-1.063-4.359-2.148-8.728-2.148-13.245,0-6.154,2.313-10.031,6.826-11.775h0a.281.281,0,0,1,0,.028l-.011.011Z" transform="translate(-5975.221 1227.673)" fill="#f0f2f6" />
      <path id="Path_40972" data-name="Path 40972" d="M5904.9-1136.684c.953-.149,1.84-.675,2.849-.519h0a4.035,4.035,0,0,0-.323,4.567c.557.959,1.182,1.92,2.473,1.678a2.243,2.243,0,0,0,2.009-2.205,5.837,5.837,0,0,1,.169-.837,3.555,3.555,0,0,1,.28,2.031c-.275,1.565-.786,3.077-2.533,3.541a3.618,3.618,0,0,1-4-1.714A6.455,6.455,0,0,1,5904.9-1136.684Z" transform="translate(-5852.247 1190.189)" fill="#4cea67" />
      <path id="Path_40973" data-name="Path 40973" d="M5909.331-1123.155a6.242,6.242,0,0,1-5.412,3.77c-2.166.129-4.358.13-5.5-2.287l.012,0,0,0h0c5.638,1.318,11.274-1.159,10.862-7.462h0A6.207,6.207,0,0,1,5909.331-1123.155Z" transform="translate(-5847.154 1185.855)" fill="#4cea67" />
      <path id="Path_40974" data-name="Path 40974" d="M5921.918-1130.383a15.476,15.476,0,0,0,2.206,5.614h0c-.06.054-.116.112-.172.171-2.024-.963-2.685-2.689-2.683-4.787a.614.614,0,0,0,.176-.271Q5921.683-1130.02,5921.918-1130.383Z" transform="translate(-5871.817 1186.524)" fill="#4cea67" />
      <path id="Path_40975" data-name="Path 40975" d="M5909.7-1132.767c.05-.095.322-.189.389-.141.7.512.922,1.163.376,2.209C5909.7-1131.381,5909.257-1131.928,5909.7-1132.767Z" transform="translate(-5853.007 1187.882)" fill="#4cea67" />
      <path id="Path_40976" data-name="Path 40976" d="M5924.364-1113.857l-.013,0-.868-.14h0c.012-.179.023-.359.036-.538h0l.625.5.216.175Z" transform="translate(-5873.086 1178.042)" fill="#4cea67" />
      <path id="Path_40977" data-name="Path 40977" d="M5920.948-1118.3c.08.089.244.236.229.258-.184.268-.287.05-.4-.088.056-.059.113-.116.171-.171Z" transform="translate(-5868.644 1180.057)" fill="#4cea67" />
      <path id="Path_40978" data-name="Path 40978" d="M5741.464-1088.246l-.01.015" transform="translate(-5605.587 1163.97)" fill="none" />
      <path id="Path_40979" data-name="Path 40979" d="M5741.5-1088.214l-.021.033" transform="translate(-5605.63 1163.953)" fill="none" />
      <path id="Path_40980" data-name="Path 40980" d="M5740.479-1089.041l.453-.69" transform="translate(-5604.602 1164.765)" fill="none" />
      <path id="Path_40981" data-name="Path 40981" d="M5646.04-1241.137a1.971,1.971,0,0,0-1.872-1.994c-2.125-.308-4.241-.795-6.375-.888-8.775-.387-17.553-.841-26.333-.923-14.753-.139-29.51-.2-44.257.437.005-1.655,1.417-1.217,2.216-1.291,3.079-.285,6.172-.469,9.264-.535,15.6-.336,31.2-.381,46.8.065a200.028,200.028,0,0,1,20.37,1.2c2.121.278,2.481,1.138,2.545,2.943a238.835,238.835,0,0,1-.6,24.819,121.553,121.553,0,0,1-1.751,15.194c-.206,1.043-.273,2.269-1.857,2.149.606-6.573,1.5-13.134,1.745-19.72A207.421,207.421,0,0,0,5646.04-1241.137Z" transform="translate(-5431.643 1248.723)" fill="#f0f2f6" />
      <path id="Path_40982" data-name="Path 40982" d="M5888.508-913.187h0Z" transform="translate(-5820.977 1070.271)" fill="#4cea67" />
      <path id="Path_40983" data-name="Path 40983" d="M5873.432-912.878h0a.837.837,0,0,0,.4-.8c.963.218,1.8-.65,2.768-.395.016.063.027.125.038.188a4.151,4.151,0,0,0-.4,5.1c1.176,2.1,2.972,2.02,4.085-.089a1.4,1.4,0,0,1,.727-.8v0h0c-.062.531-.128,1.062-.187,1.594a3.383,3.383,0,0,1-2.3,3.131,3.3,3.3,0,0,1-3.722-1.166C5873.292-908.085,5872.218-910.275,5873.432-912.878Z" transform="translate(-5806.271 1070.774)" fill="#4cea67" />
      <path id="Path_40984" data-name="Path 40984" d="M5888.471-912.743a1.459,1.459,0,0,1,.205-.438h0Z" transform="translate(-5821.13 1070.268)" fill="#4cea67" />
      <path id="Path_40985" data-name="Path 40985" d="M5877.686-908.878c-1.113,2.109-2.909,2.184-4.085.089a4.152,4.152,0,0,1,.4-5.1c.041-.046.078-.093.12-.139a.973.973,0,0,1,.285-.1l0,0,0,0,2.542.456,0,0,0,0c1.212,1.065,1.348,2.525,1.462,3.995v0A1.4,1.4,0,0,0,5877.686-908.878Zm-2.53-2.8c-.324.823-.387,1.505.585,2C5875.95-910.629,5875.908-911.25,5875.156-911.676Z" transform="translate(-5803.632 1070.778)" fill="#24212b" />
      <path id="Path_40986" data-name="Path 40986" d="M5892.975-899.668v0h0c-.079.081-.159.164-.237.246a2.92,2.92,0,0,1-1.623-2.1h0c.524-.491.179-1.182.4-1.743Q5892.244-901.468,5892.975-899.668Z" transform="translate(-5826.654 1064.962)" fill="#4cea67" />
      <path id="Path_40987" data-name="Path 40987" d="M5876.064-914.71l0,0c.34-.5.864-.485,1.377-.5q.582.48,1.161.959h0Z" transform="translate(-5805.291 1071.357)" fill="#4cea67" />
      <path id="Path_40988" data-name="Path 40988" d="M5890.452-895.52q.207.261.419.52h0c-.059.055-.119.113-.174.174l-.482-.45c.08-.083.16-.165.237-.246Z" transform="translate(-5824.131 1060.816)" fill="#4cea67" />
      <path id="Path_40989" data-name="Path 40989" d="M5889.905-894.4c.078.092.24.241.224.265-.187.267-.287.045-.4-.092.056-.061.115-.119.174-.174Z" transform="translate(-5823.167 1060.214)" fill="#4cea67" />
      <path id="Path_40990" data-name="Path 40990" d="M5808.9-1160.156a2.075,2.075,0,0,1-1.228-2.874c.158-.453.4-.83.99-.781.4.033.985.095.972.44-.057,1.6.824,1.907,2.176,1.906,1.216,0,2.365.849,3.625.427,1.153-.386,2.313-.837,1.325-2.433a10.651,10.651,0,0,1-1.339-6.7c0-.927-.068-1.861.021-2.78.078-.806.078-1.969,1.253-1.824s.892,1.184.771,2.049c-.385,2.793-.393,5.545.969,8.143,1.375,2.624.477,4.742-2.363,5.463C5813.571-1158.482,5811.219-1159.468,5808.9-1160.156Z" transform="translate(-5713.896 1210.289)" fill="#24212b" />
      <path id="Path_40991" data-name="Path 40991" d="M5822.14-1135.6c.065-.861.6-1.46,1.354-.949,1.822,1.233,4,1.6,5.885,2.634,1.221.67,1.75,1.627.716,2.789a4.09,4.09,0,0,1-2.869,1.154C5824.964-1130.023,5821.97-1133.38,5822.14-1135.6Zm3.352,2.344c.663,1,1.275,1.364,2.258.784Z" transform="translate(-5732.264 1189.926)" fill="#24212b" />
      <path id="Path_40992" data-name="Path 40992" d="M5826.023-1185.18a8.406,8.406,0,0,1,5.6-2.977,5.584,5.584,0,0,1,3.23,1.136c.531.346,1.008.833.53,1.536-.439.646-1,.588-1.6.173-1.935-1.334-3.661-.673-5.305.6a12.029,12.029,0,0,1-1.25,1.034,1.149,1.149,0,0,1-1.5-.1C5825.227-1184.328,5825.651-1184.783,5826.023-1185.18Z" transform="translate(-5738.76 1217.448)" fill="#24212b" />
      <path id="Path_40993" data-name="Path 40993" d="M5832.463-1165.819c-1.283-.229-1.286-1.334-1.249-2.385.046-1.319,1.116-2.263,1.2-3.656.041-.7,1.232-.76,1.795.107a5.025,5.025,0,0,1,.381,2.368,10.86,10.86,0,0,1-.175,1.732C5834.163-1166.65,5833.767-1165.586,5832.463-1165.819Z" transform="translate(-5740.423 1209.01)" fill="#24212b" />
      <path id="Path_40994" data-name="Path 40994" d="M5801.387-1167.64c-.028-1.226-.143-2.79,1.572-2.818,1.271-.021,1.331,1.254,1.261,2.313-.095,1.173.25,2.767-1.453,2.9C5801.159-1165.117,5801.411-1166.615,5801.387-1167.64Z" transform="translate(-5696.212 1207.974)" fill="#24212b" />
      <path id="Path_40995" data-name="Path 40995" d="M5598.8-1214.178a8.487,8.487,0,0,1,8.9,8.653,8.411,8.411,0,0,1-8.43,8.62c-5.177.047-8.775-3.388-8.8-8.4C5590.435-1210.433,5593.929-1214.153,5598.8-1214.178Z" transform="translate(-5401.644 1231.374)" fill="#b6f8f8" />
      <path id="Path_40996" data-name="Path 40996" d="M5644.86-1218.191c2.427-.353,4.859-.671,7.293-.976.962-.121,1.527.134,1.682,1.308.755,5.7,1.6,11.383,2.458,17.066.1.653.083,1.03-.663,1.13-2.354.318-4.707.659-7.059.992-1.526.22-2.181-.24-2.311-1.957-.2-2.663-.844-5.29-1.227-7.944s-.7-5.32-1-7.986C5643.958-1217.225,5643.887-1218.05,5644.86-1218.191Z" transform="translate(-5475.165 1234.058)" fill="#ddc1fe" />
      <path id="Path_40997" data-name="Path 40997" d="M5687.932-1211.409c.878-1.631,1.391-1.226,2.08-.028,2,3.465,4.024,6.913,5.935,10.426.678,1.247,1.868,2.276,1.915,4.029-5.522,0-10.984,0-16.447,0-1.831,0-1.1-1.029-.667-1.794C5683.133-1202.992,5685.636-1207.145,5687.932-1211.409Z" transform="translate(-5533.531 1230.47)" fill="#4cea67" />
      <path id="Path_40998" data-name="Path 40998" d="M5878.643-908.846c.753.426.794,1.047.585,2C5878.255-907.341,5878.318-908.023,5878.643-908.846Z" transform="translate(-5807.119 1067.948)" fill="#4cea67" />
    </g>
  </g>
</svg>