<svg xmlns="http://www.w3.org/2000/svg" width="28.687" height="21.332" viewBox="0 0 28.687 21.332">
  <g transform="translate(0 -42.3)">
    <path d="M14.725,113.207a1.3,1.3,0,1,0,1.844,1.844l3.912-3.912c.03-.03.059-.062.086-.095l.017-.023c.02-.026.041-.052.059-.08l.013-.022c.018-.029.036-.058.052-.088l.008-.016c.017-.033.033-.065.047-.1l0-.011c.015-.036.028-.072.039-.109l0-.012c.011-.036.02-.073.028-.111,0-.011,0-.021,0-.032.005-.031.011-.063.014-.095a1.285,1.285,0,0,0,0-.26c0-.032-.009-.064-.014-.1,0-.01,0-.021,0-.031-.008-.038-.017-.075-.028-.112l0-.011c-.011-.038-.025-.074-.039-.11l0-.01c-.014-.034-.03-.067-.047-.1l-.007-.015c-.016-.03-.034-.059-.053-.088l-.013-.022c-.019-.028-.039-.054-.059-.08l-.017-.023c-.027-.033-.056-.065-.086-.095l-3.912-3.912a1.3,1.3,0,1,0-1.844,1.844l1.686,1.686H1.3a1.3,1.3,0,0,0,0,2.608H16.411Z" transform="translate(0 -57.251)" fill="#fff" />
    <path d="M111.926,42.3a10.658,10.658,0,0,0-8.858,4.723,1.3,1.3,0,0,0,2.164,1.455,8.058,8.058,0,1,1,.011,8.993,1.3,1.3,0,1,0-2.161,1.46A10.667,10.667,0,1,0,111.926,42.3Z" transform="translate(-93.906 0)" fill="#fff" />
  </g>
</svg>