<svg xmlns="http://www.w3.org/2000/svg" xmlns:xlink="http://www.w3.org/1999/xlink" width="33.748" height="39.182" viewBox="0 0 33.748 39.182">
  <defs>
    <linearGradient id="linear-gradient" y1="0.5" x2="1" y2="0.5" gradientUnits="objectBoundingBox">
      <stop offset="0" stop-color="#6e41f3" />
      <stop offset="1" stop-color="#a486ff" />
    </linearGradient>
  </defs>
  <g id="Group_48613" data-name="Group 48613" transform="translate(-3291.435 -1885.398)">
    <g id="Group_48549" data-name="Group 48549" transform="translate(3291.433 1885.41)">
      <g id="Group_48548" data-name="Group 48548">
        <path id="Path_41904" data-name="Path 41904" d="M3334.494,1922.832q-.309-1.655-.6-3.31-.936-5.172-1.869-10.342-.792-4.38-1.6-8.753a3.7,3.7,0,0,0-.491-1.629,1.044,1.044,0,0,0-1.3-.421,2.939,2.939,0,0,1-1.346.172,5.714,5.714,0,0,0-.9-.126,13.56,13.56,0,0,0-2.518.148,4.342,4.342,0,0,1-.532,0,1.031,1.031,0,0,1-.061-.187c-.01-.363-.016-.725-.021-1.085a8.18,8.18,0,0,0-2.241-5.784,6.946,6.946,0,0,0-6.076-2.161,7.8,7.8,0,0,0-5.385,3.2,9.115,9.115,0,0,0-1.767,6.488c.037.427.006.857.006,1.306-.187.021-.323.037-.458.049l-2.751.3a2.672,2.672,0,0,0-1.994,1.986c-.129,1.927-.3,3.851-.446,5.775-.138,1.816-.264,3.63-.4,5.446q-.212,2.868-.437,5.741c-.089,1.168-.187,2.336-.274,3.5-.089,1.229-.2,2.459-.243,3.688a1.561,1.561,0,0,0,1.811,1.614c.707-.08,1.417-.126,2.124-.191q2.642-.244,5.283-.485c1.712-.16,3.424-.329,5.139-.489q3-.281,5.993-.553c2.059-.191,4.122-.36,6.178-.593a3.319,3.319,0,0,0,.544-.111,7.759,7.759,0,0,0,1-.381,6.934,6.934,0,0,0,1-.655,4,4,0,0,1,1.985-.815c.507-.024,1.02.049,1.531.046C3334.272,1924.212,3334.66,1923.717,3334.494,1922.832Zm-13.646-23.945-10.665,1.183c-.031-.569-.062-1.048-.083-1.528a6.347,6.347,0,0,1,2.911-6.055,4.825,4.825,0,0,1,5.314-.157,4.994,4.994,0,0,1,1.743,1.764,8,8,0,0,1,.78,4.793Z" transform="translate(-3300.782 -1889.297)" fill="url(#linear-gradient)" />
        <path id="Path_41905" data-name="Path 41905" d="M3522.976,1991.912c-.51,0-1.023-.071-1.53-.046a4,4,0,0,0-1.985.815,6.977,6.977,0,0,1-1,.655,7.827,7.827,0,0,1-1,.381c-2.1-5.191-1.632-21.241-1.813-24.056a10.048,10.048,0,0,1,.338-3.55,5.729,5.729,0,0,1,.9.126,2.936,2.936,0,0,0,1.346-.172,1.043,1.043,0,0,1,1.3.421,3.706,3.706,0,0,1,.492,1.629q.812,4.375,1.6,8.753.941,5.168,1.869,10.342.3,1.655.6,3.31C3524.263,1991.4,3523.876,1991.9,3522.976,1991.912Z" transform="translate(-3490.386 -1956.984)" fill="url(#linear-gradient)" />
        <g id="Group_47716" data-name="Group 47716" transform="translate(6.164 17.523)">
          <g id="Group_47715" data-name="Group 47715">
            <path id="Path_41906" data-name="Path 41906" d="M3367.454,2041.211v-.111a2.844,2.844,0,0,0-.047-.424.012.012,0,0,0,0-.009,2.416,2.416,0,0,0-.093-.37,2.626,2.626,0,0,0-.2-.453,2.526,2.526,0,0,0-.242-.369,2.739,2.739,0,0,0-.237-.261c-.064-.062-.13-.12-.2-.176a2.554,2.554,0,0,0-1.777-.538l-8.6.6a2.915,2.915,0,0,0-1.779.787c-.069.065-.135.133-.2.2a3.217,3.217,0,0,0-.235.294,3.259,3.259,0,0,0-.443.881c-.037.126-.066.251-.092.383a3.167,3.167,0,0,0-.046.44c0,.036,0,.075,0,.111v4.648a1.776,1.776,0,0,0,.009.219v.006a2.53,2.53,0,0,0,.032.257,1.385,1.385,0,0,0,.039.178.179.179,0,0,0,.011.053,1.053,1.053,0,0,0,.038.133.019.019,0,0,0,0,.009c.021.068.044.135.07.2a2.15,2.15,0,0,0,.142.3.652.652,0,0,0,.053.093.069.069,0,0,0,.011.022,1.368,1.368,0,0,0,.1.144c.018.026.035.049.055.075.032.042.064.083.1.122a2.009,2.009,0,0,0,.163.175,2.465,2.465,0,0,0,.281.233c.006,0,.009.009.015.011a.216.216,0,0,0,.035.022,1.058,1.058,0,0,0,.156.1,1.33,1.33,0,0,0,.143.078c.035.019.07.034.1.05a.875.875,0,0,0,.14.056,1.373,1.373,0,0,0,.145.05,1.2,1.2,0,0,0,.139.042,2.237,2.237,0,0,0,.408.065,1.479,1.479,0,0,0,.2.01.066.066,0,0,0,.023,0l0,2.683,2.574-2.858,6.208-.435a1.506,1.506,0,0,0,.211-.023,1.607,1.607,0,0,0,.2-.039,2.7,2.7,0,0,0,.547-.183,1.353,1.353,0,0,0,.145-.071c.045-.026.093-.049.139-.076a.888.888,0,0,0,.1-.064l.032-.02a2.725,2.725,0,0,0,.313-.239,2.882,2.882,0,0,0,.28-.273,2.992,2.992,0,0,0,.228-.284c.038-.051.072-.1.107-.155.012-.019.023-.041.034-.063a1.367,1.367,0,0,0,.1-.182.392.392,0,0,0,.034-.072,1.236,1.236,0,0,0,.073-.162c.02-.043.037-.09.055-.136.011-.031.023-.062.031-.093a2.687,2.687,0,0,0,.1-.38c.009-.037.015-.073.02-.11.012-.073.02-.149.026-.225a.219.219,0,0,0,0-.04c.006-.072.008-.142.008-.214Z" transform="translate(-3353.262 -2038.493)" fill="#9be200" />
          </g>
        </g>
      </g>
      <path id="Path_41196" data-name="Path 41196" d="M3378.278,2026.212c-.086-.08-.133-.12-.177-.162l-2.7-2.618c-.239-.231-.355-.223-.589.035l-.56.621c-.236.263-.236.383,0,.612l3.69,3.574c.249.241.363.233.614-.046l3.95-4.386,1.164-1.293,1.413-1.569c.21-.233.209-.369,0-.575q-.273-.267-.548-.531c-.272-.262-.373-.256-.64.04l-1.235,1.372-4.256,4.73a1.393,1.393,0,0,0-.126.2Z" transform="translate(-3365.464 -2004.37)" fill="#fff" />
      <path id="Path_41197" data-name="Path 41197" d="M3378.449,2053.832c-.049.054-.087.117-.143.19-.066-.061-.1-.094-.14-.129l-2.753-2.666a.3.3,0,0,0-.443-.071.366.366,0,0,0-.1.109c-.21.234-.424.466-.632.7a.324.324,0,0,0-.068.435.288.288,0,0,0,.064.064l3.8,3.68a.289.289,0,0,0,.421.057.338.338,0,0,0,.083-.092q3.037-3.371,6.072-6.744l.54-.6a.329.329,0,0,0,.075-.439.282.282,0,0,0-.076-.073c-.192-.192-.39-.378-.584-.567-.235-.227-.346-.242-.553-.035l-.072.075Z" transform="translate(-3365.504 -2028.926)" fill="#fff" />
    </g>
  </g>
</svg>