<svg id="_002-instagram" data-name="002-instagram" xmlns="http://www.w3.org/2000/svg" width="23.313" height="23.313" viewBox="0 0 23.313 23.313">
  <g id="Group_26200" data-name="Group 26200" transform="translate(0 0)">
    <g id="Group_26199" data-name="Group 26199">
      <path id="Path_27407" data-name="Path 27407" d="M16.028,0H7.285A7.286,7.286,0,0,0,0,7.285v8.742a7.286,7.286,0,0,0,7.285,7.285h8.742a7.286,7.286,0,0,0,7.285-7.285V7.285A7.286,7.286,0,0,0,16.028,0Zm5.1,16.028a5.105,5.105,0,0,1-5.1,5.1H7.285a5.105,5.105,0,0,1-5.1-5.1V7.285a5.105,5.105,0,0,1,5.1-5.1h8.742a5.105,5.105,0,0,1,5.1,5.1Z" transform="translate(0 0)" fill="#243a5a"/>
    </g>
  </g>
  <g id="Group_26202" data-name="Group 26202" transform="translate(5.828 5.828)">
    <g id="Group_26201" data-name="Group 26201">
      <path id="Path_27408" data-name="Path 27408" d="M133.828,128a5.828,5.828,0,1,0,5.828,5.828A5.829,5.829,0,0,0,133.828,128Zm0,9.471a3.643,3.643,0,1,1,3.643-3.643A3.648,3.648,0,0,1,133.828,137.471Z" transform="translate(-128 -128)" fill="#243a5a"/>
    </g>
  </g>
  <g id="Group_26204" data-name="Group 26204" transform="translate(17.145 4.615)">
    <g id="Group_26203" data-name="Group 26203">
      <circle id="Ellipse_171" data-name="Ellipse 171" cx="0.777" cy="0.777" r="0.777" fill="#243a5a"/>
    </g>
  </g>
</svg>
