<svg xmlns="http://www.w3.org/2000/svg" width="196.189" height="34.765" viewBox="0 0 196.189 34.765">
  <path d="M1059.492,636.931a4.837,4.837,0,0,1-5.2-4.156l2.148-.321a2.855,2.855,0,0,0,3.052,2.71c1.566,0,2.69-.9,2.69-2.249,0-1.446-.763-2.048-2.991-2.649-2.891-.7-4.417-1.746-4.417-4.216,0-2.228,1.827-3.855,4.578-3.855,2.71,0,4.376,1.445,4.758,3.573l-2.108.341a2.524,2.524,0,0,0-2.649-2.168c-1.606,0-2.449.783-2.449,1.947,0,1.2.522,1.807,2.891,2.409,2.911.722,4.577,1.726,4.577,4.416,0,2.45-1.949,4.215-4.88,4.215" transform="translate(-1015.739 -605.56)" />
  <path d="M1086.231,620.081h2.128v6.445a3.428,3.428,0,0,1,3.212-1.807c2.007,0,3.393,1.164,3.393,3.935v6.766H1092.8v-6.645c0-1.546-.643-2.248-2.028-2.248a2.289,2.289,0,0,0-2.409,2.428v6.465h-2.128Z" transform="translate(-1035.552 -604.247)" />
  <path d="M1113.887,637.355a4.979,4.979,0,1,1,9.958-.04v.823a4.979,4.979,0,1,1-9.958.04Zm4.979,4.136c1.726,0,2.77-1.285,2.77-3.313v-.843c0-2.068-1.063-3.333-2.77-3.333-1.727,0-2.791,1.245-2.791,3.313v.843c0,2.068,1.024,3.333,2.791,3.333" transform="translate(-1052.708 -611.825)" />
  <path d="M1147.1,632.5v1.667a3.857,3.857,0,0,1,3.292-1.867c2.469,0,4.3,1.807,4.3,4.939v.9c0,3.152-1.766,5.059-4.336,5.059a3.6,3.6,0,0,1-3.252-1.807v5.2h-2.128V632.5Zm2.772,8.973c1.686,0,2.61-1.145,2.61-3.272v-.9c0-2.208-1.124-3.292-2.61-3.292-1.626,0-2.811,1.084-2.811,3.353v.783c0,2.27,1.1,3.333,2.811,3.333" transform="translate(-1071.994 -611.825)" />
  <path d="M1174.958,622.688a1.315,1.315,0,1,1,1.305,1.284,1.285,1.285,0,0,1-1.305-1.284m.241,3.051h2.148v10.5H1175.2Z" transform="translate(-1090.593 -605.068)" />
  <path d="M1186.687,626.5h-1.365v-1.707h1.365v-1.506c0-2.208,1.165-3.413,3.393-3.413a4.562,4.562,0,0,1,1.626.241v1.706a3.546,3.546,0,0,0-1.365-.241c-1.1,0-1.486.642-1.486,1.626v1.586h2.73V626.5h-2.73v8.793h-2.169Z" transform="translate(-1097.022 -604.117)" />
  <path d="M1209.4,639.771l2.49-6.947h2.128l-5.4,14.094h-2.148l1.787-4.638-3.895-9.456h2.329Z" transform="translate(-1108.831 -612.153)" />
  <path d="M1250.545,633.332h-5.08l-1.084,3.694h-2.108l4.318-14.354h3.03l4.275,14.354h-2.289Zm-4.6-1.686h4.116L1248,624.539Z" transform="translate(-1132.351 -605.855)" />
  <path d="M1279.248,632.5v1.667a3.86,3.86,0,0,1,3.292-1.867c2.471,0,4.3,1.807,4.3,4.939v.9c0,3.152-1.765,5.059-4.335,5.059a3.6,3.6,0,0,1-3.253-1.807v5.2h-2.128V632.5Zm2.77,8.973c1.687,0,2.61-1.145,2.61-3.272v-.9c0-2.208-1.124-3.292-2.61-3.292-1.626,0-2.81,1.084-2.81,3.353v.783c0,2.27,1.1,3.333,2.81,3.333" transform="translate(-1153.968 -611.825)" />
  <path d="M1309.759,632.5v1.667a3.856,3.856,0,0,1,3.292-1.867c2.47,0,4.3,1.807,4.3,4.939v.9c0,3.152-1.767,5.059-4.336,5.059a3.6,3.6,0,0,1-3.252-1.807v5.2h-2.128V632.5Zm2.771,8.973c1.686,0,2.608-1.145,2.608-3.272v-.9c0-2.208-1.124-3.292-2.608-3.292-1.628,0-2.812,1.084-2.812,3.353v.783c0,2.27,1.105,3.333,2.812,3.333" transform="translate(-1172.895 -611.825)" />
  <path d="M1352.539,636.931a4.837,4.837,0,0,1-5.2-4.156l2.147-.321a2.855,2.855,0,0,0,3.052,2.71c1.566,0,2.69-.9,2.69-2.249,0-1.446-.762-2.048-2.99-2.649-2.891-.7-4.417-1.746-4.417-4.216,0-2.228,1.826-3.855,4.577-3.855,2.709,0,4.377,1.445,4.758,3.573l-2.108.341a2.524,2.524,0,0,0-2.648-2.168c-1.606,0-2.449.783-2.449,1.947,0,1.2.522,1.807,2.889,2.409,2.913.722,4.578,1.726,4.578,4.416,0,2.45-1.946,4.215-4.878,4.215" transform="translate(-1197.528 -605.56)" />
  <path d="M1380.276,625.263v2.871h2.63v1.707h-2.63v5.822c0,.964.481,1.345,1.366,1.345a3.562,3.562,0,0,0,1.385-.241v1.707a4.279,4.279,0,0,1-1.748.3c-2.147,0-3.151-1.064-3.151-2.911v-6.023h-1.385v-1.707h1.385v-2.871Z" transform="translate(-1215.767 -607.462)" />
  <path d="M1396.468,637.355a4.979,4.979,0,1,1,9.957-.04v.823a4.978,4.978,0,1,1-9.956.04v-.823Zm4.979,4.136c1.726,0,2.769-1.285,2.769-3.313v-.843c0-2.068-1.064-3.333-2.769-3.333-1.727,0-2.791,1.245-2.791,3.313v.843c0,2.068,1.024,3.333,2.791,3.333" transform="translate(-1228.004 -611.825)" />
  <path d="M1427.56,632.6h2.128v1.867c.641-1.285,1.546-2.028,3.613-2.008v2.028c-2.37.02-3.613.663-3.613,2.851v5.762h-2.128Z" transform="translate(-1247.291 -611.923)" />
  <path d="M1449.642,643.194a4.658,4.658,0,0,1-4.9-5.019v-.823a4.689,4.689,0,0,1,4.8-5.059c2.45,0,4.6,1.446,4.6,4.959v.943h-7.227c.022,2.268,1.044,3.333,2.791,3.333a2.423,2.423,0,0,0,2.489-1.726l1.867.441a4.27,4.27,0,0,1-4.418,2.951m-2.71-6.484h5.08v-.06c-.082-1.927-1-2.731-2.471-2.731-1.3,0-2.407.823-2.609,2.791" transform="translate(-1257.951 -611.823)" />
  <path d="M1008.968,590.908l-2.651-.2s-1.759-1.746-1.952-1.94a.408.408,0,0,0-.167-.1l-1.254,28.979,9.908-2.152s-3.574-24.158-3.6-24.323a.32.32,0,0,0-.288-.268" transform="translate(-983.886 -584.763)" fill="#87c222" />
  <path d="M972.509,582.295l-.984.3c-.587-1.691-1.624-3.243-3.448-3.243-.051,0-.1,0-.154.005a2.218,2.218,0,0,0-1.716-.984c-4.248,0-6.277,5.311-6.914,8.009-1.65.511-2.823.875-2.973.922-.921.289-.95.318-1.071,1.186-.091.657-2.5,19.3-2.5,19.3l18.606,3.486,1.255-29.01a.943.943,0,0,0-.1.023m-4.725,1.277c0,.064,0,.125,0,.185l-3.283,1.016c.632-2.44,1.817-3.617,2.853-4.062a7.887,7.887,0,0,1,.431,2.861m-1.693-4.055a.954.954,0,0,1,.545.184c-1.361.641-2.821,2.253-3.437,5.476-.9.279-1.781.552-2.595.8.723-2.459,2.436-6.465,5.487-6.465m.732,14.364a5.77,5.77,0,0,0-2.448-.588c-1.977,0-2.076,1.241-2.076,1.553,0,1.705,4.445,2.358,4.445,6.352,0,3.142-1.993,5.166-4.68,5.166a6.514,6.514,0,0,1-4.875-2.008l.863-2.852a6.177,6.177,0,0,0,3.125,1.455,1.261,1.261,0,0,0,1.314-1.272c0-2.225-3.647-2.324-3.647-5.979,0-3.076,2.208-6.053,6.666-6.053a5.479,5.479,0,0,1,2.565.492Zm2.074-10.469c0-.112,0-.222,0-.343a7.8,7.8,0,0,0-.38-2.567c.94.118,1.566,1.187,1.969,2.417l-1.59.493" transform="translate(-952.747 -578.377)" fill="#87c222" />
  <text transform="translate(68.16 11.034)" fill="#24212b" font-size="9" font-family="Helvetica">
    <tspan x="-31.601" y="0">AVAILABLE ON</tspan>
  </text>
</svg>