<svg xmlns="http://www.w3.org/2000/svg" width="28.964" height="32.903" viewBox="0 0 28.964 32.903">
  <g id="shopify-store--full" transform="translate(-0.002 0.004)">
    <path id="Path_9" data-name="Path 9" d="M1008.968,590.908l-2.651-.2s-1.759-1.746-1.952-1.94a.408.408,0,0,0-.167-.1l-1.254,28.979,9.908-2.152s-3.574-24.158-3.6-24.323a.32.32,0,0,0-.288-.268" transform="translate(-983.886 -584.763)" fill="#87c222" />
    <path id="Path_10" data-name="Path 10" d="M972.509,582.295l-.984.3c-.587-1.691-1.624-3.243-3.448-3.243-.051,0-.1,0-.154.005a2.218,2.218,0,0,0-1.716-.984c-4.248,0-6.277,5.311-6.914,8.009l-2.973.922c-.921.289-.95.318-1.071,1.186-.091.657-2.5,19.3-2.5,19.3l18.606,3.486,1.255-29.01a.945.945,0,0,0-.1.023m-4.725,1.277v.185l-3.283,1.016c.632-2.44,1.817-3.617,2.853-4.062a7.887,7.887,0,0,1,.431,2.861m-1.693-4.055a.954.954,0,0,1,.545.184c-1.361.641-2.821,2.253-3.437,5.476-.9.279-1.781.552-2.595.8.723-2.459,2.436-6.465,5.487-6.465m.732,14.364a5.769,5.769,0,0,0-2.448-.588c-1.977,0-2.076,1.241-2.076,1.553,0,1.705,4.445,2.358,4.445,6.352,0,3.142-1.993,5.166-4.68,5.166a6.514,6.514,0,0,1-4.875-2.008l.863-2.852a6.177,6.177,0,0,0,3.125,1.455,1.261,1.261,0,0,0,1.314-1.272c0-2.225-3.647-2.324-3.647-5.979,0-3.076,2.208-6.053,6.666-6.053a5.479,5.479,0,0,1,2.565.492ZM968.9,583.4v-.343a7.8,7.8,0,0,0-.38-2.567c.94.118,1.566,1.187,1.969,2.417l-1.59.493" transform="translate(-952.747 -578.377)" fill="#87c222" />
  </g>
</svg>