<svg xmlns="http://www.w3.org/2000/svg" width="154.026" height="28.756" viewBox="0 0 154.026 28.756">
  <g id="Group_47730" data-name="Group 47730" transform="translate(0)">
    <path id="Path_34503" data-name="Path 34503" d="M1007.673,590.521l-2.081-.164s-1.381-1.444-1.532-1.6a.318.318,0,0,0-.131-.082l-.985,23.97,7.779-1.78s-2.806-19.983-2.823-20.119a.257.257,0,0,0-.226-.221" transform="translate(-987.982 -585.438)" fill="#f0f2f6" />
    <path id="Path_34504" data-name="Path 34504" d="M968.261,581.618l-.772.251c-.461-1.4-1.275-2.682-2.707-2.682-.04,0-.08,0-.121,0a1.722,1.722,0,0,0-1.347-.814c-3.335,0-4.928,4.393-5.428,6.625l-2.334.763c-.723.239-.746.263-.841.981-.072.543-1.965,15.965-1.965,15.965l14.607,2.884.986-24a.717.717,0,0,0-.078.019m-3.709,1.056c0,.053,0,.1,0,.153l-2.577.84c.5-2.018,1.427-2.992,2.24-3.36a6.842,6.842,0,0,1,.338,2.367m-1.329-3.354a.724.724,0,0,1,.428.152c-1.069.53-2.215,1.864-2.7,4.529l-2.037.666c.567-2.034,1.912-5.347,4.308-5.347M963.8,591.2a4.353,4.353,0,0,0-1.922-.486c-1.552,0-1.63,1.027-1.63,1.284,0,1.41,3.49,1.95,3.49,5.254,0,2.6-1.565,4.273-3.674,4.273a5.018,5.018,0,0,1-3.827-1.661l.678-2.359a4.759,4.759,0,0,0,2.454,1.2,1.019,1.019,0,0,0,1.032-1.053c0-1.84-2.864-1.922-2.864-4.945a4.887,4.887,0,0,1,5.233-5.006,4.124,4.124,0,0,1,2.014.407Zm1.629-8.659c0-.093,0-.184,0-.283a6.766,6.766,0,0,0-.3-2.124c.738.1,1.23.982,1.546,2l-1.248.408" transform="translate(-952.747 -578.377)" fill="#f0f2f6" />
    <g id="Group_47722" data-name="Group 47722" transform="translate(30.267 3.328)">
      <path id="Path_34505" data-name="Path 34505" d="M1058.374,634.383a3.86,3.86,0,0,1-4.083-3.437l1.686-.266c.205,1.179.757,2.242,2.4,2.242a1.909,1.909,0,0,0,2.112-1.86c0-1.2-.6-1.694-2.348-2.191-2.27-.581-3.468-1.444-3.468-3.487,0-1.843,1.434-3.188,3.594-3.188a3.473,3.473,0,0,1,3.735,2.956l-1.655.282a2.011,2.011,0,0,0-2.08-1.793c-1.261,0-1.923.648-1.923,1.611,0,1,.41,1.494,2.27,1.993,2.285.6,3.594,1.428,3.594,3.653a3.5,3.5,0,0,1-3.831,3.486" transform="translate(-1054.292 -611.763)" fill="#f0f2f6" />
      <path id="Path_34506" data-name="Path 34506" d="M1086.231,620.081h1.671v5.331a2.673,2.673,0,0,1,2.522-1.495c1.576,0,2.664.963,2.664,3.255v5.6h-1.7v-5.5c0-1.279-.5-1.86-1.592-1.86a1.845,1.845,0,0,0-1.891,2.009v5.347h-1.671Z" transform="translate(-1076.711 -610.312)" fill="#f0f2f6" />
      <path id="Path_34507" data-name="Path 34507" d="M1113.887,636.481a3.917,3.917,0,1,1,7.818-.033v.681a3.917,3.917,0,1,1-7.818.033Zm3.909,3.421c1.355,0,2.175-1.063,2.175-2.74v-.7c0-1.71-.835-2.757-2.175-2.757-1.355,0-2.191,1.03-2.191,2.74v.7c0,1.71.8,2.757,2.191,2.757" transform="translate(-1096.123 -618.691)" fill="#f0f2f6" />
      <path id="Path_34508" data-name="Path 34508" d="M1146.646,632.462v1.378a3,3,0,0,1,2.585-1.544c1.938,0,3.373,1.495,3.373,4.085v.747c0,2.607-1.387,4.185-3.4,4.185a2.8,2.8,0,0,1-2.554-1.495v4.3h-1.671V632.462Zm2.176,7.422c1.324,0,2.049-.947,2.049-2.707v-.747c0-1.826-.883-2.723-2.049-2.723-1.277,0-2.207.9-2.207,2.773v.648c0,1.878.866,2.757,2.207,2.757" transform="translate(-1117.945 -618.691)" fill="#f0f2f6" />
      <path id="Path_34509" data-name="Path 34509" d="M1174.958,622.466a1.033,1.033,0,1,1,1.025,1.062,1.037,1.037,0,0,1-1.025-1.062m.189,2.524h1.687v8.685h-1.687Z" transform="translate(-1138.991 -611.219)" fill="#f0f2f6" />
      <path id="Path_34510" data-name="Path 34510" d="M1186.394,625.35h-1.072v-1.411h1.072v-1.245c0-1.826.914-2.823,2.664-2.823a3.417,3.417,0,0,1,1.277.2v1.411a2.659,2.659,0,0,0-1.072-.2c-.867,0-1.167.531-1.167,1.345v1.312h2.144v1.411H1188.1v7.273h-1.7Z" transform="translate(-1146.266 -610.168)" fill="#f0f2f6" />
      <path id="Path_34511" data-name="Path 34511" d="M1208.314,638.57l1.955-5.746h1.671l-4.24,11.657h-1.686l1.4-3.836-3.057-7.821h1.828Z" transform="translate(-1159.628 -619.054)" fill="#f0f2f6" />
      <path id="Path_34512" data-name="Path 34512" d="M1248.767,631.489h-3.988l-.851,3.056h-1.655l3.39-11.873h2.379l3.356,11.873h-1.8Zm-3.61-1.395h3.231l-1.623-5.878Z" transform="translate(-1186.241 -612.09)" fill="#f0f2f6" />
      <path id="Path_34513" data-name="Path 34513" d="M1278.791,632.462v1.378a3.006,3.006,0,0,1,2.585-1.544c1.94,0,3.373,1.495,3.373,4.085v.747c0,2.607-1.386,4.185-3.4,4.185a2.8,2.8,0,0,1-2.554-1.495v4.3h-1.671V632.462Zm2.175,7.422c1.324,0,2.049-.947,2.049-2.707v-.747c0-1.826-.883-2.723-2.049-2.723-1.276,0-2.206.9-2.206,2.773v.648c0,1.878.866,2.757,2.206,2.757" transform="translate(-1210.702 -618.691)" fill="#f0f2f6" />
      <path id="Path_34514" data-name="Path 34514" d="M1309.3,632.462v1.378a3,3,0,0,1,2.585-1.544c1.939,0,3.373,1.495,3.373,4.085v.747c0,2.607-1.387,4.185-3.4,4.185a2.8,2.8,0,0,1-2.553-1.495v4.3h-1.671V632.462Zm2.175,7.422c1.323,0,2.047-.947,2.047-2.707v-.747c0-1.826-.882-2.723-2.047-2.723-1.278,0-2.208.9-2.208,2.773v.648c0,1.878.868,2.757,2.208,2.757" transform="translate(-1232.118 -618.691)" fill="#f0f2f6" />
      <path id="Path_34515" data-name="Path 34515" d="M1351.422,634.383a3.86,3.86,0,0,1-4.082-3.437l1.686-.266c.2,1.179.758,2.242,2.4,2.242a1.908,1.908,0,0,0,2.112-1.86c0-1.2-.6-1.694-2.347-2.191-2.27-.581-3.468-1.444-3.468-3.487,0-1.843,1.434-3.188,3.594-3.188a3.473,3.473,0,0,1,3.736,2.956l-1.655.282a2.011,2.011,0,0,0-2.079-1.793c-1.261,0-1.923.648-1.923,1.611,0,1,.41,1.494,2.268,1.993,2.287.6,3.594,1.428,3.594,3.653a3.5,3.5,0,0,1-3.83,3.486" transform="translate(-1259.991 -611.763)" fill="#f0f2f6" />
      <path id="Path_34516" data-name="Path 34516" d="M1379.516,625.263v2.375h2.065v1.412h-2.065v4.816c0,.8.378,1.113,1.073,1.113a2.674,2.674,0,0,0,1.087-.2v1.412a3.211,3.211,0,0,1-1.372.249,2.174,2.174,0,0,1-2.474-2.408v-4.982h-1.088v-1.412h1.088v-2.375Z" transform="translate(-1280.63 -613.867)" fill="#f0f2f6" />
      <path id="Path_34517" data-name="Path 34517" d="M1396.468,636.481a3.917,3.917,0,1,1,7.818-.033v.681a3.916,3.916,0,1,1-7.817.033v-.681Zm3.909,3.421c1.355,0,2.174-1.063,2.174-2.74v-.7c0-1.71-.835-2.757-2.174-2.757-1.356,0-2.191,1.03-2.191,2.74v.7c0,1.71.8,2.757,2.191,2.757" transform="translate(-1294.476 -618.691)" fill="#f0f2f6" />
      <path id="Path_34518" data-name="Path 34518" d="M1427.56,632.57h1.671v1.544a2.669,2.669,0,0,1,2.837-1.661v1.677c-1.861.016-2.837.548-2.837,2.358v4.766h-1.671Z" transform="translate(-1316.3 -618.8)" fill="#f0f2f6" />
      <path id="Path_34519" data-name="Path 34519" d="M1448.59,641.309c-2.254,0-3.845-1.561-3.845-4.152v-.681c0-2.54,1.576-4.185,3.766-4.185,1.923,0,3.61,1.2,3.61,4.1v.78h-5.674c.017,1.876.819,2.757,2.191,2.757a1.918,1.918,0,0,0,1.954-1.428l1.466.365a3.37,3.37,0,0,1-3.468,2.441m-2.128-5.363h3.988v-.05c-.064-1.594-.789-2.259-1.94-2.259-1.023,0-1.89.681-2.048,2.308" transform="translate(-1328.363 -618.689)" fill="#f0f2f6" />
      <path id="Path_34520" data-name="Path 34520" d="M1059.59,589.193h3.033V590h-2.067v1.582h1.652v.791h-1.652v2.207h-.966v-5.386" transform="translate(-1058.011 -589.124)" fill="#f0f2f6" />
      <rect id="Rectangle_8940" data-name="Rectangle 8940" width="0.973" height="5.387" transform="translate(5.931 0.069)" fill="#f0f2f6" />
      <path id="Path_34521" data-name="Path 34521" d="M1082.862,589.193h1.13l1.874,3.736v-3.736h.879v5.387h-.987l-2.024-4.031v4.031h-.873v-5.387Z" transform="translate(-1074.346 -589.124)" fill="#f0f2f6" />
      <path id="Path_34522" data-name="Path 34522" d="M1102.808,589.193a2.185,2.185,0,0,1,2.439,2.4v.557a2.212,2.212,0,0,1-2.439,2.433h-1.631v-5.386Zm-.665.8v3.783h.63c1.008,0,1.473-.573,1.473-1.628V591.6c0-1.033-.429-1.613-1.481-1.613Z" transform="translate(-1087.202 -589.124)" fill="#f0f2f6" />
      <rect id="Rectangle_8941" data-name="Rectangle 8941" width="0.972" height="5.387" transform="translate(21.507 0.069)" fill="#f0f2f6" />
      <path id="Path_34523" data-name="Path 34523" d="M1135.283,590h-1.338v-.806h3.64V590h-1.329v4.581h-.972V590Z" transform="translate(-1110.203 -589.124)" fill="#f0f2f6" />
      <path id="Path_34524" data-name="Path 34524" d="M1156.5,592.026v-.6a2.251,2.251,0,0,1,2.266-2.457,2.219,2.219,0,0,1,2.253,2.449V592a2.27,2.27,0,1,1-4.519.023m3.519-.008v-.588c0-.988-.444-1.65-1.251-1.65s-1.259.663-1.259,1.65v.588c0,1.032.458,1.665,1.259,1.665s1.251-.641,1.251-1.665" transform="translate(-1126.038 -588.974)" fill="#f0f2f6" />
      <path id="Path_34525" data-name="Path 34525" d="M1176.327,589.193h1.13l1.873,3.736v-3.736h.88v5.387h-.987l-2.024-4.031v4.031h-.873v-5.387Z" transform="translate(-1139.951 -589.124)" fill="#f0f2f6" />
      <path id="Path_34526" data-name="Path 34526" d="M1201.66,590h-1.338v-.806h3.64V590h-1.33v4.581h-.972Z" transform="translate(-1156.795 -589.124)" fill="#f0f2f6" />
      <path id="Path_34527" data-name="Path 34527" d="M1216.7,589.193h.966v2.26h1.974v-2.26h.964v5.387h-.964v-2.3h-1.974v2.3h-.966Z" transform="translate(-1168.289 -589.124)" fill="#f0f2f6" />
      <path id="Path_34528" data-name="Path 34528" d="M1235.109,589.193h3.054V590h-2.088v1.432h1.687v.762h-1.687v1.582h2.2v.806h-3.168Z" transform="translate(-1181.213 -589.124)" fill="#f0f2f6" />
    </g>
  </g>
</svg>