<svg xmlns="http://www.w3.org/2000/svg" xmlns:xlink="http://www.w3.org/1999/xlink" width="133.547" height="39.165" viewBox="0 0 133.547 39.165">
  <defs>
    <linearGradient id="linear-gradient" y1="0.5" x2="1" y2="0.5" gradientUnits="objectBoundingBox">
      <stop offset="0" stop-color="#6e41f3" />
      <stop offset="1" stop-color="#a486ff" />
    </linearGradient>
  </defs>
  <g id="Group_48613" data-name="Group 48613" transform="translate(-3291.433 -1885.41)">
    <g id="Group_48549" data-name="Group 48549" transform="translate(3291.433 1885.41)">
      <g id="Group_48548" data-name="Group 48548">
        <path id="Path_41904" data-name="Path 41904" d="M3334.494,1922.832q-.309-1.655-.605-3.31-.936-5.172-1.869-10.342-.792-4.38-1.6-8.753a3.7,3.7,0,0,0-.491-1.629,1.044,1.044,0,0,0-1.3-.421,2.94,2.94,0,0,1-1.346.172,5.705,5.705,0,0,0-.9-.126,13.561,13.561,0,0,0-2.518.148,4.362,4.362,0,0,1-.532,0,1.051,1.051,0,0,1-.061-.187c-.01-.363-.016-.725-.021-1.085a8.18,8.18,0,0,0-2.241-5.784,6.946,6.946,0,0,0-6.076-2.161,7.8,7.8,0,0,0-5.385,3.2,9.116,9.116,0,0,0-1.767,6.488c.037.427.006.857.006,1.306-.187.021-.323.037-.458.049-.916.1-1.832.2-2.751.3a2.672,2.672,0,0,0-1.994,1.986c-.129,1.927-.3,3.851-.446,5.775-.138,1.816-.264,3.63-.4,5.446q-.212,2.868-.437,5.741c-.089,1.168-.187,2.336-.274,3.5-.089,1.229-.2,2.459-.243,3.688a1.561,1.561,0,0,0,1.811,1.614c.707-.08,1.417-.126,2.124-.191q2.642-.244,5.283-.485c1.712-.16,3.424-.329,5.139-.489q3-.281,5.993-.553c2.059-.191,4.122-.36,6.178-.593a3.348,3.348,0,0,0,.544-.111,7.742,7.742,0,0,0,1-.381,6.933,6.933,0,0,0,1-.655,4,4,0,0,1,1.985-.815c.507-.024,1.02.049,1.531.046C3334.272,1924.212,3334.66,1923.717,3334.494,1922.832Zm-13.646-23.945-10.665,1.183c-.031-.569-.062-1.048-.083-1.528a6.346,6.346,0,0,1,2.911-6.055,4.825,4.825,0,0,1,5.314-.157,4.993,4.993,0,0,1,1.743,1.764A8,8,0,0,1,3320.848,1898.887Z" transform="translate(-3300.782 -1889.297)" fill="url(#linear-gradient)" />
        <path id="Path_41905" data-name="Path 41905" d="M3522.976,1991.912c-.51,0-1.023-.071-1.53-.046a4,4,0,0,0-1.985.815,7,7,0,0,1-1,.655,7.775,7.775,0,0,1-1,.381c-2.105-5.191-1.632-21.241-1.813-24.056a10.039,10.039,0,0,1,.338-3.55,5.718,5.718,0,0,1,.9.126,2.938,2.938,0,0,0,1.346-.172,1.043,1.043,0,0,1,1.3.421,3.705,3.705,0,0,1,.492,1.629q.812,4.375,1.6,8.753.941,5.168,1.869,10.342.3,1.655.605,3.31C3524.263,1991.4,3523.876,1991.9,3522.976,1991.912Z" transform="translate(-3490.386 -1956.984)" fill="url(#linear-gradient)" />
        <g id="Group_47716" data-name="Group 47716" transform="translate(6.164 17.523)">
          <g id="Group_47715" data-name="Group 47715">
            <path id="Path_41906" data-name="Path 41906" d="M3367.454,2041.211c0-.036,0-.075,0-.111a2.86,2.86,0,0,0-.047-.424.01.01,0,0,0,0-.009,2.456,2.456,0,0,0-.094-.37,2.649,2.649,0,0,0-.2-.453,2.5,2.5,0,0,0-.242-.369,2.794,2.794,0,0,0-.237-.261c-.064-.062-.13-.12-.2-.176a2.554,2.554,0,0,0-1.777-.538l-8.6.6a2.916,2.916,0,0,0-1.779.787c-.069.065-.135.133-.2.2a3.157,3.157,0,0,0-.235.294,3.365,3.365,0,0,0-.243.4,3.423,3.423,0,0,0-.2.481c-.037.126-.066.251-.092.383a3.116,3.116,0,0,0-.046.44c0,.036,0,.075,0,.111l0,4.648c0,.072,0,.147.009.219v.006a2.484,2.484,0,0,0,.032.257,1.349,1.349,0,0,0,.039.178.165.165,0,0,0,.011.053,1.034,1.034,0,0,0,.038.133.015.015,0,0,0,0,.009c.021.068.044.135.07.2a2.159,2.159,0,0,0,.142.3.634.634,0,0,0,.053.093.068.068,0,0,0,.011.023,1.441,1.441,0,0,0,.1.144c.018.026.035.049.055.075.032.042.064.083.1.122a2.05,2.05,0,0,0,.163.175,2.449,2.449,0,0,0,.281.233c.006,0,.009.009.015.011a.2.2,0,0,0,.035.022,1.044,1.044,0,0,0,.156.1,1.293,1.293,0,0,0,.143.078c.035.019.07.034.1.05a.866.866,0,0,0,.14.056,1.287,1.287,0,0,0,.145.05,1.246,1.246,0,0,0,.139.042,2.265,2.265,0,0,0,.408.065,1.478,1.478,0,0,0,.2.01.062.062,0,0,0,.023,0l.005,2.683,2.574-2.858,6.208-.435c.069,0,.142-.013.211-.023a1.618,1.618,0,0,0,.2-.039,2.685,2.685,0,0,0,.547-.183c.049-.021.1-.045.145-.071s.093-.049.139-.076.07-.041.1-.064l.032-.02a2.7,2.7,0,0,0,.313-.239,2.844,2.844,0,0,0,.28-.273,3.1,3.1,0,0,0,.227-.284c.038-.051.072-.1.107-.155.012-.019.023-.041.034-.063a1.424,1.424,0,0,0,.1-.182.392.392,0,0,0,.034-.072,1.233,1.233,0,0,0,.073-.162c.02-.043.037-.09.055-.136.011-.031.023-.062.031-.093a2.71,2.71,0,0,0,.1-.38c.009-.037.015-.073.02-.11.012-.073.02-.149.026-.225a.217.217,0,0,0,0-.04c.006-.072.008-.142.008-.214Z" transform="translate(-3353.262 -2038.493)" fill="#9be200" />
          </g>
        </g>
      </g>
      <path id="Path_41196" data-name="Path 41196" d="M3378.278,2026.212c-.086-.08-.133-.12-.177-.162l-2.7-2.618c-.239-.231-.355-.223-.589.035l-.56.621c-.236.263-.236.383,0,.612l3.69,3.574c.249.241.363.233.614-.046l3.95-4.386,1.164-1.293,1.413-1.569c.21-.233.209-.369,0-.575q-.273-.267-.548-.531c-.272-.262-.373-.256-.64.04l-1.235,1.372-4.256,4.73A1.422,1.422,0,0,0,3378.278,2026.212Z" transform="translate(-3365.464 -2004.37)" fill="#fff" />
      <path id="Path_41197" data-name="Path 41197" d="M3378.449,2053.832c-.049.054-.087.117-.143.19-.066-.061-.1-.094-.14-.129l-2.753-2.666a.3.3,0,0,0-.443-.071.362.362,0,0,0-.1.109c-.21.234-.423.466-.631.7a.324.324,0,0,0-.068.435.288.288,0,0,0,.064.064q1.9,1.841,3.8,3.68a.289.289,0,0,0,.421.057.345.345,0,0,0,.083-.092q3.037-3.371,6.072-6.744l.54-.6a.329.329,0,0,0,.075-.439.281.281,0,0,0-.076-.073c-.192-.192-.39-.378-.584-.567-.235-.227-.346-.242-.553-.035-.023.023-.046.047-.072.075Z" transform="translate(-3365.504 -2028.926)" fill="#fff" />
    </g>
    <g id="Group_48550" data-name="Group 48550" transform="translate(3334.596 1895.529)">
      <path id="Path_41907" data-name="Path 41907" d="M3661.308,1980.79a8.734,8.734,0,0,0,4.4,1.178c1.539.011,2.945-.715,2.945-2.164,0-1.063-.814-1.736-2.514-2.641-1.975-1.053-3.855-2.515-3.855-4.925,0-3.762,3.283-6.039,7.327-6.039a9.123,9.123,0,0,1,4.408.914l-1.257,3.316a7.378,7.378,0,0,0-3.461-.813c-1.86,0-2.833.925-2.835,1.941,0,1.083,1.143,1.756,2.718,2.642,2.263,1.18,3.688,2.688,3.688,4.92,0,4.137-3.431,6.271-7.573,6.271a9.484,9.484,0,0,1-5.322-1.33Z" transform="translate(-3659.974 -1965.19)" fill="#5f08eb" />
      <path id="Path_41908" data-name="Path 41908" d="M3830.173,2033.22a11.775,11.775,0,0,1-5.048,1.066c-3.861,0-5.841-2.185-5.841-5.713,0-4.105,2.983-8.4,7.861-8.4,2.742,0,4.7,1.542,4.706,4.055,0,3.43-3.352,4.686-8.76,4.543a2.789,2.789,0,0,0,.428,1.389,3.107,3.107,0,0,0,2.584,1.034,8.539,8.539,0,0,0,3.789-.855Zm-3.516-10.13a3.365,3.365,0,0,0-3.18,2.778c3.087.032,4.642-.4,4.642-1.633C3828.119,2023.561,3827.558,2023.09,3826.657,2023.09Z" transform="translate(-3804.287 -2014.088)" fill="#5f08eb" />
      <path id="Path_41909" data-name="Path 41909" d="M3961.748,2034l1.715-9.113c.34-1.711.549-3.191.734-4.4h3.511l-.253,2.243h.055a5.673,5.673,0,0,1,4.724-2.546c2.208,0,3.467,1.355,3.467,3.7a15.586,15.586,0,0,1-.231,2.27l-1.493,7.851H3970l1.409-7.476a8.828,8.828,0,0,0,.152-1.513c0-.949-.324-1.623-1.346-1.623-1.3,0-2.806,1.627-3.365,4.61l-1.13,6Z" transform="translate(-3933.34 -2014.088)" fill="#5f08eb" />
      <path id="Path_41910" data-name="Path 41910" d="M4146.367,1958.719l-2.735,14.361a38.867,38.867,0,0,0-.638,5.243h-3.639l.194-2.19h-.056a5.184,5.184,0,0,1-4.422,2.494c-2.3,0-4.177-1.81-4.177-5.1,0-4.7,3.383-9.026,8.493-9.026a5.424,5.424,0,0,1,1.84.326l1.181-6.112Zm-5.7,9.288a2.638,2.638,0,0,0-1.575-.47c-2.38,0-4.063,2.746-4.063,5.34,0,1.63.706,2.547,1.86,2.547s2.549-1.21,3.07-3.795Z" transform="translate(-4086.563 -1958.415)" fill="#5f08eb" />
      <path id="Path_41911" data-name="Path 41911" d="M4289.349,1980.548l2.567-13.514h3.975l-2.567,13.514Zm3.138-17.122a2.231,2.231,0,0,1,2.281-2.251,1.875,1.875,0,0,1,2,1.957,2.21,2.21,0,0,1-2.348,2.238A1.84,1.84,0,0,1,4292.487,1963.427Z" transform="translate(-4230.101 -1960.641)" fill="#5f08eb" />
      <path id="Path_41912" data-name="Path 41912" d="M4377.887,1975.4l1.972-10.481h-1.741l.571-3.033h1.749l.125-.692a7.326,7.326,0,0,1,2.274-4.414,5.9,5.9,0,0,1,3.852-1.287,5.37,5.37,0,0,1,2.1.344l-.689,3.15a3.341,3.341,0,0,0-1.277-.223c-1.292,0-2.08,1.11-2.328,2.461l-.127.661h2.658l-.573,3.033h-2.636l-1.974,10.481Z" transform="translate(-4310.305 -1955.493)" fill="#5f08eb" />
      <path id="Path_41913" data-name="Path 41913" d="M4464.381,2023.4l.823,5.889c.205,1.4.349,2.362.452,3.217h.06c.294-.822.6-1.688,1.185-3.156l2.45-5.95h4.192l-4.811,9.7a26.9,26.9,0,0,1-5.206,7.72,9.045,9.045,0,0,1-4.329,2.305l-.886-3.412a8.3,8.3,0,0,0,2.295-1.063,7.149,7.149,0,0,0,2.191-2.347.8.8,0,0,0,.063-.651L4460.2,2023.4Z" transform="translate(-4383.158 -2017.01)" fill="#5f08eb" />
    </g>
  </g>
</svg>