<svg id="site-logo" xmlns="http://www.w3.org/2000/svg" width="40" height="40" viewBox="0 0 40 40">
  <path id="Path_5" data-name="Path 5" d="M0,20C0,10.572,0,5.858,2.929,2.929S10.572,0,20,0,34.142,0,37.071,2.929,40,10.572,40,20s0,14.142-2.929,17.071S29.428,40,20,40,5.858,40,2.929,37.071,0,29.428,0,20Z" fill="#243a5a" />
  <path id="Path_6" data-name="Path 6" d="M24,26a.861.861,0,0,1,.9.993,5,5,0,0,1-9.8,0A.861.861,0,0,1,16,26Z" fill="#2df8bb" />
  <path id="Path_7" data-name="Path 7" d="M26.1,17.777a.831.831,0,0,0-.59,1.182,4,4,0,1,0,.626-4.754A.831.831,0,0,0,26.4,15.5l.507.293a1,1,0,0,1-.241,1.832Z" fill="#2df8bb" />
  <path id="Path_8" data-name="Path 8" d="M13.9,17.777a.831.831,0,0,1,.59,1.182,4,4,0,1,1-.626-4.754A.831.831,0,0,1,13.6,15.5l-.507.293a1,1,0,0,0,.241,1.832Z" fill="#2df8bb" />
</svg>