<svg id="Group_47696" data-name="Group 47696" xmlns="http://www.w3.org/2000/svg" width="30.019" height="20.638" viewBox="0 0 30.019 20.638">
  <path id="Path_27409" data-name="Path 27409" d="M28.743,81.989c-.814-1.448-1.7-1.715-3.5-1.816-1.8-.122-6.317-.173-10.233-.173s-8.445.051-10.24.171c-1.8.1-2.681.368-3.5,1.818C.432,83.435,0,85.927,0,90.313v.015c0,4.368.432,6.878,1.27,8.31.822,1.448,1.705,1.711,3.5,1.833,1.8.105,6.319.167,10.242.167s8.435-.062,10.235-.165c1.8-.122,2.683-.385,3.5-1.833.846-1.432,1.274-3.942,1.274-8.31v-.015C30.019,85.927,29.591,83.435,28.743,81.989ZM11.257,95.947V84.69l9.381,5.629Z" transform="translate(0 -80)" fill="#243a5a"/>
</svg>
